<svg width="59" height="59" viewBox="0 0 59 59" fill="none" xmlns="http://www.w3.org/2000/svg">
<g filter="url(#filter0_d_1086_1132)">
<ellipse cx="29.4834" cy="27.5" rx="25.4834" ry="25.5" fill="#0E2B4C"/>
<mask id="path-2-inside-1_1086_1132" fill="white">
<path d="M37.1332 16.8184H22.8859C21.4949 16.8184 20.3672 17.946 20.3672 19.3371V36.2216C20.3672 37.6127 21.4949 38.7403 22.8859 38.7403H37.0239H37.1332C38.5242 38.7403 39.6519 37.6127 39.6519 36.2216V19.3371C39.6519 17.946 38.5242 16.8184 37.1332 16.8184Z"/>
</mask>
<path d="M37.1332 16.8184H22.8859C21.4949 16.8184 20.3672 17.946 20.3672 19.3371V36.2216C20.3672 37.6127 21.4949 38.7403 22.8859 38.7403H37.0239H37.1332C38.5242 38.7403 39.6519 37.6127 39.6519 36.2216V19.3371C39.6519 17.946 38.5242 16.8184 37.1332 16.8184Z" fill="white"/>
<path d="M22.8859 18.3184H37.1332V15.3184H22.8859V18.3184ZM38.1519 19.3371V36.2216H41.1519V19.3371H38.1519ZM21.8672 36.2216V19.3371H18.8672V36.2216H21.8672ZM37.0239 37.2403H22.8859V40.2403H37.0239V37.2403ZM37.1332 37.2403H37.0239V40.2403H37.1332V37.2403ZM18.8672 36.2216C18.8672 38.4411 20.6665 40.2403 22.8859 40.2403V37.2403C22.3233 37.2403 21.8672 36.7842 21.8672 36.2216H18.8672ZM38.1519 36.2216C38.1519 36.7842 37.6958 37.2403 37.1332 37.2403V40.2403C39.3527 40.2403 41.1519 38.4411 41.1519 36.2216H38.1519ZM37.1332 18.3184C37.6958 18.3184 38.1519 18.7745 38.1519 19.3371H41.1519C41.1519 17.1176 39.3527 15.3184 37.1332 15.3184V18.3184ZM22.8859 15.3184C20.6664 15.3184 18.8672 17.1176 18.8672 19.3371H21.8672C21.8672 18.7745 22.3233 18.3184 22.8859 18.3184V15.3184Z" fill="white" mask="url(#path-2-inside-1_1086_1132)"/>
<path d="M34.9029 27.8098H31.5549V31.1577H29.7983V27.8098H26.4329V26.0445H29.7983V22.6791H31.5549V26.0445H34.9029V27.8098Z" fill="#0E2B4C"/>
</g>
<path d="M24.2969 14V18.8072M35.3704 14V18.8072" stroke="white" stroke-width="1.5"/>
<defs>
<filter id="filter0_d_1086_1132" x="0" y="0" width="58.9688" height="59" filterUnits="userSpaceOnUse" color-interpolation-filters="sRGB">
<feFlood flood-opacity="0" result="BackgroundImageFix"/>
<feColorMatrix in="SourceAlpha" type="matrix" values="0 0 0 0 0 0 0 0 0 0 0 0 0 0 0 0 0 0 127 0" result="hardAlpha"/>
<feOffset dy="2"/>
<feGaussianBlur stdDeviation="2"/>
<feComposite in2="hardAlpha" operator="out"/>
<feColorMatrix type="matrix" values="0 0 0 0 0 0 0 0 0 0 0 0 0 0 0 0 0 0 0.15 0"/>
<feBlend mode="normal" in2="BackgroundImageFix" result="effect1_dropShadow_1086_1132"/>
<feBlend mode="normal" in="SourceGraphic" in2="effect1_dropShadow_1086_1132" result="shape"/>
</filter>
</defs>
</svg>
