<svg width="16" height="16" viewBox="0 0 16 16" fill="none" xmlns="http://www.w3.org/2000/svg">
<path d="M7.66667 15.3333C5.54236 15.3333 3.73351 14.5866 2.2401 13.0932C0.746701 11.5998 0 9.79097 0 7.66667C0 5.54236 0.746701 3.73351 2.2401 2.2401C3.73351 0.746702 5.54236 0 7.66667 0C9.0243 0 10.2142 0.275521 11.2365 0.826563C12.2587 1.3776 13.1451 2.13229 13.8958 3.09063V1.4375H15.3333V6.08542H10.949V4.64792H13.2729C12.666 3.68958 11.8913 2.91493 10.949 2.32396C10.0066 1.73299 8.9125 1.4375 7.66667 1.4375C5.92569 1.4375 4.45226 2.04045 3.24635 3.24635C2.04045 4.45226 1.4375 5.92569 1.4375 7.66667C1.4375 9.40764 2.04045 10.8811 3.24635 12.087C4.45226 13.2929 5.92569 13.8958 7.66667 13.8958C8.99236 13.8958 10.2062 13.5165 11.3083 12.7578C12.4104 11.9991 13.1771 10.9969 13.6083 9.75104H15.0937C14.6306 11.4281 13.7122 12.7778 12.3385 13.8C10.9649 14.8222 9.40764 15.3333 7.66667 15.3333Z" fill="#0A386E" fill-opacity="0.4"/>
<path d="M5.77012 8.41487C5.60532 8.55496 5.40425 8.625 5.16692 8.625C4.92957 8.625 4.72784 8.55552 4.56171 8.41656C4.39557 8.2776 4.3125 8.10807 4.3125 7.90795C4.3125 7.70782 4.3949 7.53771 4.5597 7.39763C4.7245 7.25754 4.92556 7.1875 5.1629 7.1875C5.40024 7.1875 5.60198 7.25698 5.7681 7.39594C5.93424 7.5349 6.01731 7.70443 6.01731 7.90455C6.01731 8.10468 5.93492 8.27479 5.77012 8.41487Z" fill="#0A386E" fill-opacity="0.4"/>
<path d="M8.51998 8.41487C8.35518 8.55496 8.15412 8.625 7.91679 8.625C7.67944 8.625 7.47771 8.55552 7.31158 8.41656C7.14544 8.2776 7.06237 8.10807 7.06237 7.90795C7.06237 7.70782 7.14477 7.53771 7.30956 7.39763C7.47436 7.25754 7.67543 7.1875 7.91276 7.1875C8.15011 7.1875 8.35184 7.25698 8.51797 7.39594C8.68411 7.5349 8.76718 7.70443 8.76718 7.90455C8.76718 8.10468 8.68478 8.27479 8.51998 8.41487Z" fill="#0A386E" fill-opacity="0.4"/>
<path d="M11.2528 8.41487C11.088 8.55496 10.8869 8.625 10.6496 8.625C10.4123 8.625 10.2105 8.55552 10.0444 8.41656C9.87825 8.2776 9.79518 8.10807 9.79518 7.90795C9.79518 7.70782 9.87758 7.53771 10.0424 7.39763C10.2072 7.25754 10.4082 7.1875 10.6456 7.1875C10.8829 7.1875 11.0847 7.25698 11.2508 7.39594C11.4169 7.5349 11.5 7.70443 11.5 7.90455C11.5 8.10468 11.4176 8.27479 11.2528 8.41487Z" fill="#0A386E" fill-opacity="0.4"/>
</svg>
