<?xml version="1.0" encoding="UTF-8"?>
<svg id="Layer_2" data-name="Layer 2" xmlns="http://www.w3.org/2000/svg" width="128" height="128" viewBox="0 0 128 128">
  <defs>
    <style>
      .cls-1 {
        stroke: #000;
      }

      .cls-1, .cls-2 {
        fill: none;
        stroke-linecap: round;
        stroke-width: 8.25px;
      }

      .cls-3 {
        fill: #fff;
        opacity: 0;
        stroke-width: 0px;
      }

      .cls-2 {
        stroke: #27c1aa;
      }
    </style>
  </defs>
  <rect class="cls-3" x="0" width="128" height="128"/>
  <path class="cls-2" d="m52.93,9.73v38.13c0,2.95-2,5.35-4.47,5.35H8.93c-2.47,0-4.47-2.4-4.47-5.35V9.73c0-2.95,2-5.35,4.47-5.35h39.54c2.47,0,4.47,2.4,4.47,5.35Z"/>
  <path class="cls-1" d="m124.35,9.73v38.13c0,2.95-2,5.35-4.47,5.35h-39.54c-2.47,0-4.47-2.4-4.47-5.35V9.73c0-2.95,2-5.35,4.47-5.35h39.54c2.47,0,4.47,2.4,4.47,5.35Z"/>
  <path class="cls-2" d="m52.93,79.95v38.13c0,2.95-2,5.35-4.47,5.35H8.93c-2.47,0-4.47-2.4-4.47-5.35v-38.13c0-2.95,2-5.35,4.47-5.35h39.54c2.47,0,4.47,2.4,4.47,5.35Z"/>
  <path class="cls-2" d="m124.35,79.95v38.13c0,2.95-2,5.35-4.47,5.35h-39.54c-2.47,0-4.47-2.4-4.47-5.35v-38.13c0-2.95,2-5.35,4.47-5.35h39.54c2.47,0,4.47,2.4,4.47,5.35Z"/>
</svg>