<?xml version="1.0" encoding="UTF-8"?>
<svg id="Layer_2" data-name="Layer 2" xmlns="http://www.w3.org/2000/svg" width="128" height="128" viewBox="0 0 128 128">
  <defs>
    <style>
      .cls-1 {
        stroke-width: 8px;
      }

      .cls-1, .cls-2 {
        stroke: #27c1aa;
      }

      .cls-1, .cls-2, .cls-3, .cls-4 {
        fill: none;
        stroke-linecap: round;
      }

      .cls-2 {
        stroke-width: 8px;
      }

      .number {
        stroke: white;
        stroke-linejoin: round;
        stroke-width: 8px;
      }
    </style>
  </defs>
  <path class="cls-1" d="m16.65,37.67h95.33"/>
  <path class="cls-2" d="m59.89,14.22c.56,0,1.38,0,3.1,0,39.56.07,46.1,1.56,50.27,7.24,1.55,2.11,3.49,5.76,4.13,12.16v78.36c0,6.62-4.41,11.99-9.84,11.99H20.45c-5.44,0-9.84-5.37-9.84-11.99V33.62c.63-6.47,2.6-10.11,4.13-12.16,2.83-3.78,7.87-7.14,45.14-7.24Z"/>
  <path class="cls-1" d="m36.4,12V4"/>
  <path class="cls-1" d="m89.74,12V4"/>
  <path class="number" d="m46.07,75l8-8v21.33"/>
  <path class="number" d="m67.4,83v-10.67c0-2.95,2.39-5.33,5.33-5.33s5.33,2.39,5.33,5.33v10.67c0,2.95-2.39,5.33-5.33,5.33s-5.33-2.39-5.33-5.33Z"/>
</svg>
