<svg width="31" height="35" viewBox="0 0 31 35" fill="none" xmlns="http://www.w3.org/2000/svg">
<mask id="path-1-inside-1_1038_15705" fill="white">
<path fill-rule="evenodd" clip-rule="evenodd" d="M0 5.56011C0 3.91914 1.33027 2.58887 2.97124 2.58887H27.2634C28.9043 2.58887 30.2346 3.91914 30.2346 5.5601V10.8932H29.3146V5.5601C29.3146 4.42724 28.3962 3.50887 27.2634 3.50887H2.97124C1.83837 3.50887 0.92 4.42724 0.92 5.56011V31.9148C0.92 33.0477 1.83837 33.966 2.97124 33.966H25.7798H27.2634C28.3962 33.966 29.3146 33.0477 29.3146 31.9148V16.4216H30.2346V31.9148C30.2346 33.5558 28.9043 34.886 27.2634 34.886H25.7798H2.97124C1.33027 34.886 0 33.5558 0 31.9148V5.56011Z"/>
</mask>
<path d="M30.2346 10.8932V11.8087H31.1501V10.8932H30.2346ZM29.3146 10.8932H28.3991V11.8087H29.3146V10.8932ZM29.3146 16.4216V15.5062H28.3991V16.4216H29.3146ZM30.2346 16.4216H31.1501V15.5062H30.2346V16.4216ZM2.97124 1.67337C0.824653 1.67337 -0.915493 3.41353 -0.915493 5.56011H0.915493C0.915493 4.42475 1.83588 3.50436 2.97124 3.50436V1.67337ZM27.2634 1.67337H2.97124V3.50436H27.2634V1.67337ZM31.1501 5.5601C31.1501 3.41352 29.41 1.67337 27.2634 1.67337V3.50436C28.3987 3.50436 29.3191 4.42475 29.3191 5.5601H31.1501ZM31.1501 10.8932V5.5601H29.3191V10.8932H31.1501ZM29.3146 11.8087H30.2346V9.97767H29.3146V11.8087ZM28.3991 5.5601V10.8932H30.2301V5.5601H28.3991ZM27.2634 4.42436C27.8906 4.42436 28.3991 4.93285 28.3991 5.5601H30.2301C30.2301 3.92162 28.9019 2.59337 27.2634 2.59337V4.42436ZM2.97124 4.42436H27.2634V2.59337H2.97124V4.42436ZM1.83549 5.56011C1.83549 4.93285 2.34398 4.42436 2.97124 4.42436V2.59337C1.33276 2.59337 0.00450706 3.92163 0.00450706 5.56011H1.83549ZM1.83549 31.9148V5.56011H0.00450706V31.9148H1.83549ZM2.97124 33.0505C2.34398 33.0505 1.83549 32.5421 1.83549 31.9148H0.00450706C0.00450706 33.5533 1.33276 34.8815 2.97124 34.8815V33.0505ZM25.7798 33.0505H2.97124V34.8815H25.7798V33.0505ZM27.2634 33.0505H25.7798V34.8815H27.2634V33.0505ZM28.3991 31.9148C28.3991 32.5421 27.8906 33.0505 27.2634 33.0505V34.8815C28.9019 34.8815 30.2301 33.5533 30.2301 31.9148H28.3991ZM28.3991 16.4216V31.9148H30.2301V16.4216H28.3991ZM30.2346 15.5062H29.3146V17.3371H30.2346V15.5062ZM31.1501 31.9148V16.4216H29.3191V31.9148H31.1501ZM27.2634 35.8015C29.41 35.8015 31.1501 34.0614 31.1501 31.9148H29.3191C29.3191 33.0502 28.3987 33.9705 27.2634 33.9705V35.8015ZM25.7798 35.8015H27.2634V33.9705H25.7798V35.8015ZM2.97124 35.8015H25.7798V33.9705H2.97124V35.8015ZM-0.915493 31.9148C-0.915493 34.0614 0.824657 35.8015 2.97124 35.8015V33.9705C1.83588 33.9705 0.915493 33.0502 0.915493 31.9148H-0.915493ZM-0.915493 5.56011V31.9148H0.915493V5.56011H-0.915493Z" fill="#0E2B4C" mask="url(#path-1-inside-1_1038_15705)"/>
<mask id="path-3-inside-2_1038_15705" fill="white">
<path d="M6.45703 15.6162H13.4361V27.0273H6.45703V15.6162Z"/>
</mask>
<path d="M6.45703 15.6162V14.7007H5.54154V15.6162H6.45703ZM13.4361 15.6162H14.3516V14.7007H13.4361V15.6162ZM13.4361 27.0273V27.9428H14.3516V27.0273H13.4361ZM6.45703 27.0273H5.54154V27.9428H6.45703V27.0273ZM6.45703 16.5317H13.4361V14.7007H6.45703V16.5317ZM12.5206 15.6162V27.0273H14.3516V15.6162H12.5206ZM13.4361 26.1118H6.45703V27.9428H13.4361V26.1118ZM7.37252 27.0273V15.6162H5.54154V27.0273H7.37252Z" fill="#0E2B4C" mask="url(#path-3-inside-2_1038_15705)"/>
<path d="M6.91406 0.462891V7.3435M23.7469 0.462891V7.3435" stroke="#0E2B4C" stroke-width="0.915493"/>
</svg>
