<svg width="37" height="41" viewBox="0 0 37 41" fill="none" xmlns="http://www.w3.org/2000/svg">
<mask id="path-1-inside-1_1086_1131" fill="white">
<path fill-rule="evenodd" clip-rule="evenodd" d="M2.79609 0.318359C1.25185 0.318359 0 1.57021 0 3.11445V19.124H0.92V3.11445C0.92 2.07831 1.75995 1.23836 2.79609 1.23836H33.3716C34.4078 1.23836 35.2477 2.07831 35.2477 3.11445V26.7748C35.2477 27.8109 34.4078 28.6509 33.3716 28.6509H14.2272V28.8466L14.2131 28.8356L7.65274 37.193V28.7384H7.54331V28.6509H2.79609C1.75995 28.6509 0.92 27.8109 0.92 26.7748V23.8886H0V26.7748C0 28.319 1.25185 29.5709 2.79609 29.5709H6.48469V38.8829V40.5727L7.52811 39.2435L15.1208 29.5709H33.3716C34.9159 29.5709 36.1677 28.319 36.1677 26.7748V3.11445C36.1677 1.57021 34.9159 0.318359 33.3716 0.318359H2.79609Z"/>
</mask>
<path d="M0 19.124H-0.915493V20.0395H0V19.124ZM0.92 19.124V20.0395H1.83549V19.124H0.92ZM14.2272 28.6509V27.7354H13.3117V28.6509H14.2272ZM14.2272 28.8466L13.6619 29.5668L15.1427 30.7292V28.8466H14.2272ZM14.2131 28.8356L14.7784 28.1155L14.0582 27.5502L13.4929 28.2703L14.2131 28.8356ZM7.65274 37.193H6.73724V39.842L8.37287 37.7583L7.65274 37.193ZM7.65274 28.7384H8.56823V27.823H7.65274V28.7384ZM7.54331 28.7384H6.62782V29.6539H7.54331V28.7384ZM7.54331 28.6509H8.45881V27.7354H7.54331V28.6509ZM0.92 23.8886H1.83549V22.9731H0.92V23.8886ZM0 23.8886V22.9731H-0.915493V23.8886H0ZM6.48469 29.5709H7.40019V28.6554H6.48469V29.5709ZM6.48469 40.5727H5.5692V43.2217L7.20482 41.138L6.48469 40.5727ZM7.52811 39.2435L8.24824 39.8088L8.24824 39.8088L7.52811 39.2435ZM15.1208 29.5709V28.6554H14.6756L14.4007 29.0056L15.1208 29.5709ZM0.915493 3.11445C0.915493 2.07582 1.75746 1.23385 2.79609 1.23385V-0.597134C0.746241 -0.597134 -0.915493 1.06459 -0.915493 3.11445H0.915493ZM0.915493 19.124V3.11445H-0.915493V19.124H0.915493ZM0.92 18.2085H0V20.0395H0.92V18.2085ZM0.00450706 3.11445V19.124H1.83549V3.11445H0.00450706ZM2.79609 0.322866C1.25434 0.322866 0.00450706 1.5727 0.00450706 3.11445H1.83549C1.83549 2.58393 2.26556 2.15385 2.79609 2.15385V0.322866ZM33.3716 0.322866H2.79609V2.15385H33.3716V0.322866ZM36.1632 3.11445C36.1632 1.5727 34.9134 0.322866 33.3716 0.322866V2.15385C33.9022 2.15385 34.3322 2.58393 34.3322 3.11445H36.1632ZM36.1632 26.7748V3.11445H34.3322V26.7748H36.1632ZM33.3716 29.5664C34.9134 29.5664 36.1632 28.3165 36.1632 26.7748H34.3322C34.3322 27.3053 33.9022 27.7354 33.3716 27.7354V29.5664ZM14.2272 29.5664H33.3716V27.7354H14.2272V29.5664ZM15.1427 28.8466V28.6509H13.3117V28.8466H15.1427ZM13.6478 29.5557L13.6619 29.5668L14.7924 28.1265L14.7784 28.1155L13.6478 29.5557ZM8.37287 37.7583L14.9332 29.4009L13.4929 28.2703L6.93261 36.6277L8.37287 37.7583ZM6.73724 28.7384V37.193H8.56823V28.7384H6.73724ZM7.54331 29.6539H7.65274V27.823H7.54331V29.6539ZM6.62782 28.6509V28.7384H8.45881V28.6509H6.62782ZM2.79609 29.5664H7.54331V27.7354H2.79609V29.5664ZM0.00450706 26.7748C0.00450706 28.3165 1.25434 29.5664 2.79609 29.5664V27.7354C2.26557 27.7354 1.83549 27.3053 1.83549 26.7748H0.00450706ZM0.00450706 23.8886V26.7748H1.83549V23.8886H0.00450706ZM0 24.804H0.92V22.9731H0V24.804ZM0.915493 26.7748V23.8886H-0.915493V26.7748H0.915493ZM2.79609 28.6554C1.75746 28.6554 0.915493 27.8134 0.915493 26.7748H-0.915493C-0.915493 28.8246 0.746239 30.4864 2.79609 30.4864V28.6554ZM6.48469 28.6554H2.79609V30.4864H6.48469V28.6554ZM7.40019 38.8829V29.5709H5.5692V38.8829H7.40019ZM7.40019 40.5727V38.8829H5.5692V40.5727H7.40019ZM6.80798 38.6782L5.76456 40.0075L7.20482 41.138L8.24824 39.8088L6.80798 38.6782ZM14.4007 29.0056L6.80798 38.6782L8.24824 39.8088L15.8409 30.1362L14.4007 29.0056ZM33.3716 28.6554H15.1208V30.4864H33.3716V28.6554ZM35.2522 26.7748C35.2522 27.8134 34.4103 28.6554 33.3716 28.6554V30.4864C35.4215 30.4864 37.0832 28.8246 37.0832 26.7748H35.2522ZM35.2522 3.11445V26.7748H37.0832V3.11445H35.2522ZM33.3716 1.23385C34.4103 1.23385 35.2522 2.07582 35.2522 3.11445H37.0832C37.0832 1.06459 35.4215 -0.597134 33.3716 -0.597134V1.23385ZM2.79609 1.23385H33.3716V-0.597134H2.79609V1.23385Z" fill="#0E2B4C" mask="url(#path-1-inside-1_1086_1131)"/>
<path d="M8 9.0498H27.8567M27.8567 17.3265H22.1834M16.0373 17.3265H8" stroke="#0E2B4C" stroke-width="0.915493"/>
</svg>
