<svg width="30" height="31" viewBox="0 0 30 31" fill="none" xmlns="http://www.w3.org/2000/svg">
<path fill-rule="evenodd" clip-rule="evenodd" d="M2.85102 0.0732422C1.31703 0.0732422 0.0734863 1.31679 0.0734863 2.85077V15.5361H1.9265V2.85077C1.9265 2.34017 2.34042 1.92625 2.85102 1.92625H27.0779C27.5885 1.92625 28.0024 2.34017 28.0024 2.85077V21.5983C28.0024 22.1089 27.5885 22.5228 27.0779 22.5228H11.9085V22.7891L11.9073 22.7876L7.1634 26.7356V22.4997H5.31039V22.5228H2.85102C2.34042 22.5228 1.9265 22.1089 1.9265 21.5983V19.3114H0.0734863V21.5983C0.0734863 23.1323 1.31703 24.3758 2.85102 24.3758H5.31039V28.7121V30.6885L6.82957 29.4242L12.8957 24.3758H27.0779C28.6119 24.3758 29.8554 23.1323 29.8554 21.5983V2.85077C29.8554 1.31678 28.6119 0.0732422 27.0779 0.0732422H2.85102Z" fill="#160C27"/>
<path d="M6.97156 7.55664H22.7053M22.7053 14.1148H18.2099M13.34 14.1148H6.97156" stroke="#160C27" stroke-width="1.85301"/>
</svg>
