<?xml version="1.0" encoding="UTF-8"?>
<svg id="Layer_2" data-name="Layer 2" xmlns="http://www.w3.org/2000/svg" width="128" height="128" viewBox="0 0 128 128">
  <defs>
    <style>
      .cls-2 {
        stroke: #27c1aa;
      }

      .cls-2, .cls-1 {
        fill: none;
        stroke-linecap: round;
        stroke-width: 8px;
      }

      .cls-1 {
        stroke: #000;
      }
    </style>
  </defs>
  <path class="cls-1" d="m96.05,113.02c-1.17-4.35,1.26-14.82-10.43-28.25-2.99-3.43-6.73-6.17-10.96-8.01-4.22-1.84-8.82-2.73-13.44-2.6-4.62.12-9.16,1.26-13.27,3.31-4.11,2.06-7.7,4.99-10.49,8.58-2.79,3.59-4.72,7.74-5.64,12.15-.92,4.41-1.52,11.63-1.84,14.82"/>
  <path class="cls-1" d="m77.53,46.12c0,8.53-6.82,15.36-15.13,15.36s-15.13-6.83-15.13-15.36,6.82-15.36,15.13-15.36,15.13,6.83,15.13,15.36Z"/>
  <circle class="cls-2" cx="64" cy="64" r="59.72"/>
</svg>
