<svg width="31" height="31" viewBox="0 0 31 31" fill="none" xmlns="http://www.w3.org/2000/svg">
<path d="M1.72625 19.8604C1.25517 18.4334 1 16.9064 1 15.319C1 7.41083 7.33307 1 15.1453 1C22.9576 1 29.2906 7.41083 29.2906 15.319C29.2906 23.2271 22.9576 29.638 15.1453 29.638C10.026 29.638 5.54191 26.8851 3.05876 22.762" stroke="#160C27" stroke-width="1.85301"/>
<path d="M22.5589 26.9418C22.2808 25.904 22.8582 23.4092 20.0715 20.2083C19.359 19.3898 18.4664 18.7376 17.4598 18.2999C16.4532 17.8622 15.3583 17.6501 14.2561 17.6794C13.1539 17.7087 12.0726 17.9786 11.0921 18.4692C10.1115 18.9597 9.25693 19.6583 8.59139 20.5134C7.92586 21.3685 7.46643 22.3582 7.24709 23.4092C7.02774 24.4603 6.88552 26.1811 6.80829 26.9418" stroke="#160C27" stroke-width="1.85301"/>
<path d="M18.1433 10.9928C18.1433 13.026 16.5181 14.6549 14.537 14.6549C12.5559 14.6549 10.9306 13.026 10.9306 10.9928C10.9306 8.95966 12.5559 7.3308 14.537 7.3308C16.5181 7.3308 18.1433 8.95966 18.1433 10.9928Z" stroke="#160C27" stroke-width="1.85301"/>
</svg>
