<svg width="38" height="39" viewBox="0 0 38 39" fill="none" xmlns="http://www.w3.org/2000/svg">
<path d="M1.91657 25.214C1.32204 23.413 1 21.4858 1 19.4824C1 9.50193 8.99266 1.41113 18.8521 1.41113C28.7116 1.41113 36.7042 9.50193 36.7042 19.4824C36.7042 29.4629 28.7116 37.5537 18.8521 37.5537C12.3913 37.5537 6.73212 34.0795 3.59826 28.8759" stroke="#0E2B4C" stroke-width="0.915493"/>
<path d="M30.6055 33.6044C30.2109 32.1556 31.0303 28.6731 27.0757 24.2048C26.0645 23.0623 24.7979 22.1518 23.3694 21.5408C21.9409 20.9297 20.3872 20.6337 18.8231 20.6746C17.259 20.7155 15.7244 21.0923 14.333 21.7771C12.9415 22.4618 11.7288 23.4371 10.7843 24.6307C9.83984 25.8244 9.18788 27.2059 8.8766 28.6731C8.56533 30.1403 8.36351 32.5425 8.25391 33.6044" stroke="#0E2B4C" stroke-width="0.915493"/>
<path d="M24.3704 12.8544C24.3704 15.8052 22.0089 18.1877 19.1074 18.1877C16.206 18.1877 13.8445 15.8052 13.8445 12.8544C13.8445 9.9037 16.206 7.52122 19.1074 7.52122C22.0089 7.52122 24.3704 9.9037 24.3704 12.8544Z" stroke="#0E2B4C" stroke-width="0.915493"/>
</svg>
