<svg width="38" height="31" viewBox="0 0 38 31" fill="none" xmlns="http://www.w3.org/2000/svg">
<path d="M7.66968 12.105L1.08929 27.4585C0.573637 28.6616 1.45617 30 2.76515 30H28.6545C29.3838 30 30.043 29.5653 30.3303 28.895L36.9107 13.5415C37.4264 12.3384 36.5438 11 35.2349 11H9.34554C8.61618 11 7.957 11.4347 7.66968 12.105Z" stroke="#0E2B4C" stroke-width="0.915493"/>
<path d="M1 10.0625V27.5M31 30V7.35454C31 6.34756 30.1837 5.53125 29.1767 5.53125H17.6124C17.1598 5.53125 16.7233 5.36292 16.388 5.05899L12.4302 1.47226C12.0948 1.16833 11.6584 1 11.2058 1H2.82329C1.81631 1 1 1.81631 1 2.82329V5.53125" stroke="#0E2B4C" stroke-width="0.915493"/>
</svg>
