<?xml version="1.0" encoding="UTF-8"?>
<svg id="Layer_2" data-name="Layer 2" xmlns="http://www.w3.org/2000/svg" width="128" height="128" viewBox="0 0 128 128">
  <defs>
    <style>
      .cls-1 {
        stroke: #27c1aa;
        stroke-width: 8.03px;
      }

      .cls-1, .cls-2 {
        fill: none;
        stroke-linecap: round;
      }

      .cls-2 {
        stroke: #000;
        stroke-width: 9.89px;
      }

      .cls-3 {
        fill: #fff;
        opacity: 0;
        stroke-width: 0px;
      }
    </style>
  </defs>
  <polygon class="cls-3" points="128 127.76 0 127.76 -1 -.24 128 -.24 128 127.76"/>
  <polygon class="cls-3" points="127 128 0 128 -1 0 127 0 127 128"/>
  <path class="cls-2" d="m108.15,41.26h-28.56"/>
  <path class="cls-1" d="m123.98,27.61c0-3-3.07-5.43-6.86-5.43h-46.28c-1.7,0-3.34-.5-4.6-1.4l-15.88-11.36c-1.26-.9-2.9-1.4-4.6-1.4H11.08c-3.79,0-6.86,2.43-6.86,5.43v22.88c-.4,22.53.2,45.05-.21,67.58,0,1.05.11,6.65,4.63,11.18,2.86,2.86,6.81,4.63,11.18,4.63h87.96c8.74,0,15.81-7.08,15.81-15.81v-5.49l.39.2V27.61Z"/>
</svg>