<svg width="35" height="27" viewBox="0 0 35 27" fill="none" xmlns="http://www.w3.org/2000/svg">
<path d="M1.46324 8.52785V16.3452V23.5M1.46324 4.76393V2.4447C1.46324 1.64681 2.11006 1 2.90794 1H10.0042C10.3618 1 10.7068 1.13267 10.9723 1.37235L14.3167 4.39158C14.5821 4.63125 14.9271 4.76393 15.2848 4.76393H25.0342C25.8321 4.76393 26.4789 5.41074 26.4789 6.20863V10" stroke="#160C27" stroke-width="1.85301"/>
<path d="M7.75262 10.1535L1.50787 23.0147C1.04198 23.9742 1.74084 25.0904 2.80747 25.0904H26.2756C26.8424 25.0904 27.3569 24.7589 27.5912 24.2427L33.4276 11.3816C33.8617 10.4251 33.1624 9.33984 32.1121 9.33984H9.05223C8.49896 9.33984 7.99428 9.65582 7.75262 10.1535Z" stroke="#160C27" stroke-width="1.85301"/>
</svg>
