<svg width="42" height="30" viewBox="0 0 42 30" fill="none" xmlns="http://www.w3.org/2000/svg">
<path d="M40.9083 3.71484H41.366V2.72592L40.612 3.36586L40.9083 3.71484ZM40.9083 26.0132L40.6286 26.3756L41.366 26.9446V26.0132H40.9083ZM30.7821 3.49053V25.986H31.6976V3.49053H30.7821ZM1.45775 25.986V3.49053H0.542254V25.986H1.45775ZM5.12837 28.2805H3.75225V29.196H5.12837V28.2805ZM28.4876 28.2805H26.4583V29.196H28.4876V28.2805ZM26.4583 28.2805H5.12837V29.196H26.4583V28.2805ZM3.75225 1.19603H21.8819V0.280535H3.75225V1.19603ZM26.5609 1.19603H28.4876V0.280535H26.5609V1.19603ZM0.542254 25.986C0.542254 27.7589 1.97942 29.196 3.75225 29.196V28.2805C2.48503 28.2805 1.45775 27.2533 1.45775 25.986H0.542254ZM30.7821 25.986C30.7821 27.2533 29.7548 28.2805 28.4876 28.2805V29.196C30.2605 29.196 31.6976 27.7589 31.6976 25.986H30.7821ZM31.6976 3.49053C31.6976 1.7177 30.2605 0.280535 28.4876 0.280535V1.19603C29.7548 1.19603 30.7821 2.22331 30.7821 3.49053H31.6976ZM1.45775 3.49053C1.45775 2.22331 2.48503 1.19603 3.75225 1.19603V0.280535C1.97942 0.280535 0.542254 1.7177 0.542254 3.49053H1.45775ZM40.4505 3.71484V26.0132H41.366V3.71484H40.4505ZM31.5716 12.2399L41.2045 4.06383L40.612 3.36586L30.9792 11.5419L31.5716 12.2399ZM41.1879 25.6508L31.555 18.218L30.9958 18.9428L40.6286 26.3756L41.1879 25.6508Z" fill="#0E2B4C"/>
<mask id="path-2-inside-1_1086_1113" fill="white">
<path fill-rule="evenodd" clip-rule="evenodd" d="M11.6265 16.1378C13.3209 16.1378 14.6945 14.8757 14.6945 13.3189C14.6945 11.7621 13.3209 10.5 11.6265 10.5C9.93215 10.5 8.55859 11.7621 8.55859 13.3189C8.55859 14.8757 9.93215 16.1378 11.6265 16.1378ZM6.10156 21.4939V21.9895V23.89H17.2995V21.9895V21.4939H17.2704C17.1398 20.3864 16.5743 19.3455 15.6596 18.5512C14.6096 17.6393 13.1855 17.127 11.7005 17.127C10.2156 17.127 8.79148 17.6393 7.74147 18.5512C6.82683 19.3455 6.26132 20.3864 6.1307 21.4939H6.10156Z"/>
</mask>
<path d="M6.10156 21.4939V20.5784H5.18607V21.4939H6.10156ZM6.10156 23.89H5.18607V24.8055H6.10156V23.89ZM17.2995 23.89V24.8055H18.215V23.89H17.2995ZM17.2995 21.4939H18.215V20.5784H17.2995V21.4939ZM17.2704 21.4939L16.3612 21.6012L16.4565 22.4094H17.2704V21.4939ZM15.6596 18.5512L15.0593 19.2424L15.0593 19.2424L15.6596 18.5512ZM7.74147 18.5512L7.14117 17.86L7.14117 17.86L7.74147 18.5512ZM6.1307 21.4939V22.4094H6.94457L7.03989 21.6012L6.1307 21.4939ZM13.779 13.3189C13.779 14.2987 12.8898 15.2223 11.6265 15.2223V17.0533C13.752 17.0533 15.61 15.4527 15.61 13.3189H13.779ZM11.6265 11.4155C12.8898 11.4155 13.779 12.3391 13.779 13.3189H15.61C15.61 11.185 13.752 9.58451 11.6265 9.58451V11.4155ZM9.47409 13.3189C9.47409 12.3391 10.3633 11.4155 11.6265 11.4155V9.58451C9.50105 9.58451 7.6431 11.185 7.6431 13.3189H9.47409ZM11.6265 15.2223C10.3633 15.2223 9.47409 14.2987 9.47409 13.3189H7.6431C7.6431 15.4527 9.50105 17.0533 11.6265 17.0533V15.2223ZM7.01706 21.9895V21.4939H5.18607V21.9895H7.01706ZM7.01706 23.89V21.9895H5.18607V23.89H7.01706ZM17.2995 22.9745H6.10156V24.8055H17.2995V22.9745ZM16.384 21.9895V23.89H18.215V21.9895H16.384ZM16.384 21.4939V21.9895H18.215V21.4939H16.384ZM17.2704 22.4094H17.2995V20.5784H17.2704V22.4094ZM15.0593 19.2424C15.8154 19.899 16.2593 20.7371 16.3612 21.6012L18.1796 21.3867C18.0202 20.0356 17.3331 18.792 16.2599 17.86L15.0593 19.2424ZM11.7005 18.0424C12.9811 18.0424 14.1877 18.4854 15.0593 19.2424L16.2599 17.86C15.0315 16.7931 13.3899 16.2115 11.7005 16.2115V18.0424ZM8.34176 19.2424C9.21339 18.4854 10.42 18.0424 11.7005 18.0424V16.2115C10.0112 16.2115 8.36957 16.7931 7.14117 17.86L8.34176 19.2424ZM7.03989 21.6012C7.14179 20.7371 7.58564 19.899 8.34176 19.2424L7.14117 17.86C6.06801 18.792 5.38084 20.0356 5.22151 21.3867L7.03989 21.6012ZM6.10156 22.4094H6.1307V20.5784H6.10156V22.4094Z" fill="#0E2B4C" mask="url(#path-2-inside-1_1086_1113)"/>
</svg>
