<svg width="34" height="26" viewBox="0 0 34 26" fill="none" xmlns="http://www.w3.org/2000/svg">
<path d="M32.62 5.13895H33.5465V3.13731L32.0205 4.43258L32.62 5.13895ZM32.62 22.8073L32.054 23.5408L33.5465 24.6925V22.8073H32.62ZM24.0344 4.96202V22.7866H25.8874V4.96202H24.0344ZM1.92647 22.7866V4.96202H0.0734646V22.7866H1.92647ZM4.27113 24.0408H3.18074V25.8939H4.27113V24.0408ZM22.7801 24.0408H21.1721V25.8939H22.7801V24.0408ZM21.1721 24.0408H4.27113V25.8939H21.1721V24.0408ZM3.18074 3.70775H17.5459V1.85475H3.18074V3.70775ZM21.2534 3.70775H22.7801V1.85475H21.2534V3.70775ZM0.0734646 22.7866C0.0734646 24.5027 1.46464 25.8939 3.18074 25.8939V24.0408C2.48803 24.0408 1.92647 23.4793 1.92647 22.7866H0.0734646ZM24.0344 22.7866C24.0344 23.4793 23.4728 24.0408 22.7801 24.0408V25.8939C24.4962 25.8939 25.8874 24.5027 25.8874 22.7866H24.0344ZM25.8874 4.96202C25.8874 3.24592 24.4962 1.85475 22.7801 1.85475V3.70775C23.4728 3.70775 24.0344 4.26931 24.0344 4.96202H25.8874ZM1.92647 4.96202C1.92647 4.26931 2.48803 3.70775 3.18074 3.70775V1.85475C1.46464 1.85475 0.0734646 3.24592 0.0734646 4.96202H1.92647ZM31.6935 5.13895V22.8073H33.5465V5.13895H31.6935ZM25.5869 12.3237L33.2196 5.84532L32.0205 4.43258L24.3878 10.911L25.5869 12.3237ZM33.186 22.0738L25.5533 16.1843L24.4213 17.6514L32.054 23.5408L33.186 22.0738Z" fill="#160C27"/>
<mask id="path-2-inside-1_9_10666" fill="white">
<path fill-rule="evenodd" clip-rule="evenodd" d="M9.42487 14.9808C10.7674 14.9808 11.8558 13.9808 11.8558 12.7472C11.8558 11.5137 10.7674 10.5137 9.42487 10.5137C8.08231 10.5137 6.99396 11.5137 6.99396 12.7472C6.99396 13.9808 8.08231 14.9808 9.42487 14.9808ZM5.04678 19.226V19.6185V21.1245H13.9196V19.6185V19.226H13.8965C13.7931 18.3484 13.345 17.5236 12.6202 16.8941C11.7882 16.1716 10.6598 15.7656 9.4832 15.7656C8.30659 15.7656 7.17817 16.1716 6.34618 16.8941C5.62141 17.5236 5.17331 18.3484 5.06985 19.226H5.04678Z"/>
</mask>
<path d="M5.04678 19.226V17.373H3.19377V19.226H5.04678ZM5.04678 21.1245H3.19377V22.9776H5.04678V21.1245ZM13.9196 21.1245V22.9776H15.7726V21.1245H13.9196ZM13.9196 19.226H15.7726V17.373H13.9196V19.226ZM13.8965 19.226L12.0563 19.4429L12.2491 21.079H13.8965V19.226ZM12.6202 16.8941L11.4052 18.2932L11.4052 18.2932L12.6202 16.8941ZM6.34618 16.8941L7.56121 18.2932L7.56122 18.2932L6.34618 16.8941ZM5.06985 19.226V21.079H6.71725L6.91012 19.4429L5.06985 19.226ZM10.0028 12.7472C10.0028 12.7989 9.98367 12.8761 9.89006 12.9621C9.79383 13.0505 9.63416 13.1278 9.42487 13.1278V16.8338C11.64 16.8338 13.7088 15.1488 13.7088 12.7472H10.0028ZM9.42487 12.3667C9.63416 12.3667 9.79383 12.4439 9.89006 12.5324C9.98367 12.6184 10.0028 12.6956 10.0028 12.7472H13.7088C13.7088 10.3457 11.64 8.66066 9.42487 8.66066V12.3667ZM8.84697 12.7472C8.84697 12.6956 8.86607 12.6184 8.95968 12.5324C9.05591 12.4439 9.21558 12.3667 9.42487 12.3667V8.66066C7.20974 8.66066 5.14095 10.3457 5.14095 12.7472H8.84697ZM9.42487 13.1278C9.21558 13.1278 9.05591 13.0505 8.95968 12.9621C8.86607 12.8761 8.84697 12.7989 8.84697 12.7472H5.14095C5.14095 15.1488 7.20974 16.8338 9.42487 16.8338V13.1278ZM6.89979 19.6185V19.226H3.19377V19.6185H6.89979ZM6.89979 21.1245V19.6185H3.19377V21.1245H6.89979ZM13.9196 19.2715H5.04678V22.9776H13.9196V19.2715ZM12.0666 19.6185V21.1245H15.7726V19.6185H12.0666ZM12.0666 19.226V19.6185H15.7726V19.226H12.0666ZM13.8965 21.079H13.9196V17.373H13.8965V21.079ZM11.4052 18.2932C11.8091 18.6439 12.0109 19.0582 12.0563 19.4429L15.7368 19.0091C15.5752 17.6385 14.8809 16.4032 13.8352 15.4951L11.4052 18.2932ZM9.4832 17.6186C10.2461 17.6186 10.9343 17.8842 11.4052 18.2932L13.8352 15.4951C12.6422 14.4589 11.0735 13.9126 9.4832 13.9126V17.6186ZM7.56122 18.2932C8.03213 17.8842 8.72025 17.6186 9.4832 17.6186V13.9126C7.89292 13.9126 6.3242 14.4589 5.13114 15.4951L7.56122 18.2932ZM6.91012 19.4429C6.95547 19.0582 7.15732 18.6439 7.56121 18.2932L5.13114 15.4951C4.0855 16.4032 3.39116 17.6385 3.22959 19.0091L6.91012 19.4429ZM5.04678 21.079H5.06985V17.373H5.04678V21.079Z" fill="#160C27" mask="url(#path-2-inside-1_9_10666)"/>
</svg>
