<svg width="32" height="27" viewBox="0 0 32 27" fill="none" xmlns="http://www.w3.org/2000/svg">
<path d="M14.4163 14.3228V6.59137L10.6869 7.23475L14.4163 14.3228L29.0392 24.6824H2.8684H31.2201L14.4163 14.3228ZM10.6869 0.691895H2.8684C2.28999 0.691895 1.73527 0.921673 1.32627 1.33068C0.917272 1.73969 0.6875 2.29442 0.6875 2.87285V24.6824C0.6875 25.2608 0.917272 25.8155 1.32627 26.2245C1.73527 26.6335 2.28999 26.8633 2.8684 26.8633H29.0392C29.6176 26.8633 30.1723 26.6335 30.5813 26.2245C30.9903 25.8155 31.2201 25.2608 31.2201 24.6824V7.23475C31.2201 6.65633 30.9903 6.10159 30.5813 5.69259C30.1723 5.28358 29.6176 5.0538 29.0392 5.0538H15.9538L12.2354 1.33528C12.0325 1.13117 11.7912 0.969244 11.5254 0.858822C11.2597 0.748399 10.9747 0.691667 10.6869 0.691895Z" fill="white"/>
<path d="M16.6949 19.6298V11.5195" stroke="#160C27" stroke-width="2.5" stroke-linecap="round" stroke-linejoin="round"/>
<path d="M20.75 15.5746H12.6397" stroke="#160C27" stroke-width="2.5" stroke-linecap="round" stroke-linejoin="round"/>
</svg>
