<svg width="25" height="25" viewBox="0 0 25 25" fill="none" xmlns="http://www.w3.org/2000/svg">
<rect x="0.420315" y="0.420315" width="23.7678" height="23.7678" rx="11.8839" stroke="#132B7E" stroke-width="0.84063"/>
<path d="M7.73158 17.6665C7.49536 17.7227 7.29007 17.6636 7.11571 17.4893C6.94136 17.3149 6.8823 17.1096 6.93855 16.8734L7.61347 13.6507L10.9544 16.9915L7.73158 17.6665ZM10.9544 16.9915L7.61347 13.6507L15.5945 5.66966C15.7857 5.47843 16.0219 5.38281 16.3031 5.38281C16.5844 5.38281 16.8206 5.47843 17.0118 5.66966L18.9354 7.59319C19.1266 7.78442 19.2222 8.02065 19.2222 8.30187C19.2222 8.58309 19.1266 8.81931 18.9354 9.01054L10.9544 16.9915ZM16.3031 6.3952L8.84521 13.8531L10.7519 15.7598L18.2098 8.30187L16.3031 6.3952Z" fill="#132B7E"/>
</svg>
