<svg width="456" height="456" viewBox="0 0 456 456" fill="none" xmlns="http://www.w3.org/2000/svg">
<path d="M309.145 197.209C309.202 197.219 309.445 197.25 309.502 197.261C309.559 197.271 309.802 197.302 309.859 197.312C309.673 197.235 309.217 197.167 308.611 197.079C308.787 197.121 308.963 197.162 309.145 197.209C309.409 197.276 309.673 197.349 309.942 197.421C309.953 197.411 309.958 197.39 309.958 197.39C309.958 197.364 309.922 197.338 309.859 197.312C309.942 197.323 310.02 197.333 310.103 197.349L310.01 197.437C310.01 197.437 310.035 197.442 310.046 197.447C310.553 197.582 311.066 197.722 311.599 197.872C314.303 198.643 314.432 198.819 317.286 199.653C323.189 201.383 324.909 201.3 327.073 201.999C327.726 202.206 328.161 202.408 328.865 202.709C332.775 204.386 334.727 205.225 335.825 206.877C336.747 208.265 336.887 209.741 336.897 210.456C336.944 213.387 334.96 215.624 333.878 216.784C325.53 225.728 315.613 229.596 312.04 236.209C311.713 236.81 311.273 237.742 310.253 238.623C307.71 240.813 305.39 239.379 301.309 241.217C298.844 242.325 298.922 243.19 296.84 243.63C295.23 243.967 294.37 243.63 291.206 243.092C285.618 242.155 284.707 242.621 284.142 241.839C282.506 239.576 288.161 232.833 290.848 229.814C293.671 227.799 295.401 227.758 296.483 228.162C298.373 228.861 299.29 231.279 301.936 231.559C302.356 231.606 302.702 231.58 302.92 231.559C303.842 229.576 306.006 225.635 310.429 222.439C315.981 218.431 321.693 218.048 323.842 218.012C318.58 218.276 314.443 219.156 311.594 219.933C311.594 219.933 302.086 222.522 294.339 223.957C293.547 224.102 291.641 224.433 289.776 223.599C289.212 223.346 288.699 223.118 288.166 222.615C287.576 222.056 286.136 220.378 286.053 220.301C286.053 220.301 286.053 220.301 286.043 220.29C286.006 220.259 285.97 220.213 285.929 220.166C285.913 220.145 285.898 220.13 285.877 220.104C285.784 219.995 285.685 219.845 285.587 219.658C285.685 219.803 285.779 219.954 285.877 220.104C285.893 220.124 285.908 220.15 285.918 220.171L285.582 219.664C281.542 213.641 277.498 207.623 273.459 201.6C276.379 208.234 279.3 214.863 282.221 221.497C275.535 227.96 269.331 230.834 265.007 232.274C253.417 236.121 235.395 236.297 231.408 236.846C230.144 237.017 228.622 237.256 226.39 237.354C222.386 237.53 220.641 237.002 215.349 238.11C212.273 238.752 210.605 239.462 203.614 242.082C202.412 242.533 200.921 243.087 199.202 243.724C199.455 240.689 199.611 237.416 199.605 233.931C199.595 228.674 199.222 223.863 198.668 219.581C197.083 241.911 192.143 257.944 188.653 261.875C186.814 263.941 185.033 265.495 185.033 265.495C182.578 267.634 181.004 268.426 177.638 270.767C177.379 270.948 176.762 271.373 175.882 271.865C175.613 272.015 175.333 272.16 175.017 272.315C173.427 273.092 172.682 273.123 170.693 274.656C167.529 277.09 165.364 280.125 163.386 282.864C162.065 284.692 162.283 284.77 161.599 285.552C160.828 286.427 159.906 286.712 159.978 286.997C159.994 287.048 160.035 287.069 160.046 287.09C160.289 287.395 156.291 291.052 150.211 296.334C153.427 293.252 156.648 290.171 159.864 287.09C158.176 290.197 156.887 292.574 155.488 295.138C154.473 297.002 152.531 300.606 151.19 304.319C151.107 304.552 151.035 304.754 150.973 304.941C150.745 305.624 150.242 307.54 149.233 311.378C147.902 316.432 147.591 317.96 147.508 319.006C147.508 319.063 147.493 319.301 147.482 319.617C147.43 321.026 147.43 322.17 147.441 322.88C147.441 322.88 147.441 323.247 147.456 323.584C147.529 326.344 148.161 328.985 148.062 330.984C147.974 332.724 147.425 332.237 146.094 336.168C145.079 339.167 144.556 341.947 144.126 344.216C144.116 344.273 144.111 344.309 144.1 344.361C143.603 346.992 143.66 348.695 143.593 349.622C143.401 352.196 141.827 354.159 140.553 355.749C139.31 357.297 138.005 358.328 137.068 358.97C134.51 354.692 131.956 350.415 129.398 346.137C131.014 343.77 132.63 341.404 134.245 339.037C134.893 338.628 135.297 338.618 136.074 338.11C136.643 337.737 137.042 337.344 137.291 337.074C137.394 337.152 137.446 337.188 137.446 337.188C137.446 337.188 137.218 336.976 136.747 336.577C136.55 336.489 136.234 336.318 135.985 335.992C135.354 335.179 135.545 333.941 137.296 329.089C138.016 327.095 138.264 326.525 138.694 325.075C138.782 324.78 138.86 324.511 139.46 322.232C140.118 319.752 140.444 318.504 140.496 318.219C140.708 317.038 140.853 315.319 140.46 313.102C140.595 312.512 140.745 311.927 140.941 311.321C140.941 311.321 141.48 309.658 142.34 308.069C144.194 304.63 152.749 293.827 152.713 293.796C152.702 293.786 152.029 294.381 150.475 296.209C147.306 299.943 146.923 301.233 143.438 306.054C142.324 307.592 140.154 310.451 138.922 312.823C138.269 314.076 137.839 315.112 137.524 316.075C137.234 316.971 137.083 317.654 137.037 317.862C136.431 320.58 134.81 323.889 134.106 325.806C131.863 331.927 135.369 333.667 132.852 339.037C131.708 341.481 130.641 341.849 129.958 344.563C129.238 347.416 129.792 348.757 129.455 351.021C129.144 353.102 128.016 356.049 124.09 359.337C121.527 354.656 118.963 349.98 116.4 345.298C116.545 344.816 117.109 342.988 117.984 341.424C117.984 341.424 118.772 340.005 119.745 339.55C119.761 339.539 119.771 339.534 119.792 339.529C121.169 338.902 122.055 339.146 122.122 338.882C122.153 338.763 121.998 338.654 121.413 338.177C121.143 337.96 120.46 337.395 120.33 337.276C119.352 336.36 120.853 333.061 120.853 333.061C122.008 330.529 122.811 327.83 124.147 325.391C127.249 319.736 128.797 316.914 129.921 313.615C130.853 310.881 131.449 308.229 131.848 306.443C132.428 303.853 132.64 302.382 132.749 301.212C132.904 299.534 132.987 298.675 132.93 297.421C132.93 297.421 132.811 294.459 133.277 292.382C133.303 292.258 133.355 292.082 133.474 291.885C133.655 291.585 133.904 291.398 134.106 291.285C134.97 290.679 136.182 289.767 137.498 288.509C139.238 286.872 140.268 285.505 142.795 282.015C146.011 277.566 147.575 275.314 147.845 274.796C148.937 272.735 150.351 269.431 150.957 264.816C148.249 261.632 144.872 256.717 142.909 250.062C140.191 240.844 141.708 233.434 142.795 231.647C142.889 231.497 143.484 230.544 144.163 229.239C144.582 228.426 144.924 227.68 145.39 226.66C145.468 226.494 145.571 226.261 145.69 225.95C146.229 224.521 146.374 223.226 146.41 222.341L146.41 221.859C144.996 222.854 143.003 224.48 141.18 226.914C136.317 233.403 136.861 240.078 135.628 248.902C134.82 254.671 133.842 261.688 129.999 269.467C123.583 282.455 112.992 289.86 110.641 291.445C110.465 291.564 110.268 291.694 110.035 291.844C109.88 291.942 109.667 292.077 109.419 292.237C100.9 297.634 92.1325 301.342 91.8166 300.762C91.6561 300.472 93.7741 299.322 97.451 296.468C105.131 290.508 109.212 285.169 108.984 284.935C108.699 284.64 102.05 293.045 92.7125 293.071C92.6711 293.071 92.64 293.071 92.6245 293.071C94.0641 292.196 96.2237 290.673 98.2589 288.245C100.206 285.914 101.439 283.025 102.283 278.768C104.173 269.265 101.195 265.826 102.195 257.219C102.826 251.745 104.639 247.882 106.177 244.599C115.136 225.479 134.359 217.841 138.834 216.085C144.038 214.045 148.533 213.019 151.465 212.476C153.5 210.875 156.244 208.799 159.59 206.525C163.06 204.164 165.152 202.734 168.249 201.114C169.155 200.642 169.393 200.544 178.715 196.417C183.194 194.438 183.412 194.34 184.132 194.076C188.875 192.294 189.818 192.657 193.334 191.186C196.415 189.902 198.337 188.586 200.372 187.214C207.954 182.118 208.958 182.781 220.041 176.028C226.488 172.097 231.175 168.814 235.556 165.738C237.446 164.412 238.849 163.402 240.092 162.491C239.942 162.532 239.714 162.6 239.44 162.672C231.636 164.697 223.987 161.787 224.101 160.979C224.204 160.228 230.807 162.346 239.621 159.7C247.41 157.359 252.174 152.729 251.983 152.393C251.796 152.072 247.13 155.686 240.709 155.277C237.866 155.096 235.121 154.153 235.162 153.553C235.214 152.817 239.336 153.848 244.401 151.761C248.751 149.969 249.968 147.452 254.484 146.95C256.094 146.769 257.648 146.898 257.664 146.706C257.684 146.437 254.655 146.225 251.097 145.184C247.591 144.159 243.521 142.31 243.702 141.59C243.966 140.533 252.899 143.402 263.267 140.839C264.707 140.482 268.596 139.425 268.523 139.032C268.482 138.809 267.172 138.907 266.416 138.928C260.636 139.104 254.852 136.137 255.007 135.438C255.11 134.982 257.71 135.707 263.888 135.438C268.689 135.225 267.974 134.754 270.351 134.884C271.32 134.935 272.827 135.096 274.002 134.345C274.194 134.221 274.867 133.755 275.623 133.175C276.876 132.211 276.996 131.999 277.519 131.637C278.523 130.953 279.471 130.803 281.128 130.554C283.552 130.197 283.728 130.632 285.369 130.285C285.67 130.223 285.898 130.161 286.115 130.083C287.265 129.669 289.248 128.571 289.248 128.571C291.387 127.349 291.993 127.069 291.926 126.815C291.869 126.598 291.361 126.572 291.123 126.546C289.461 126.37 288.342 125.054 286.561 123.195C283.117 119.601 281.796 118.799 281.998 118.503C282.309 118.053 285.815 119.291 288.301 121.186C288.772 121.543 289.461 122.123 290.579 122.527C291.413 122.828 292.159 122.916 293.396 123.066C294.67 123.216 295.307 123.294 295.369 123.138C295.577 122.667 292.034 121.492 289.238 118.472C286.53 115.546 285.401 111.844 285.882 111.533C286.229 111.305 287.166 113.061 289.906 115.018C292.63 116.971 295.297 117.799 297.55 118.503C298.85 118.907 300.983 119.493 301.061 119.275C301.123 119.109 299.896 118.524 299.435 118.286C294.743 115.878 291.139 109.549 291.91 108.778C292.454 108.239 295.38 110.207 297.141 111.393C298.679 112.429 298.373 112.424 299.689 113.273C299.689 113.273 302.972 115.391 306.473 116.085C307.482 116.287 308.285 116.302 308.456 116.302C309.197 116.318 309.694 116.266 310.082 116.199C310.729 116.08 311.17 115.961 311.423 115.893C312.091 115.712 313.096 115.552 314.531 115.691C310.45 112.206 306.364 108.716 302.283 105.23C302.946 105.298 303.992 105.427 305.256 105.702C308.591 106.416 310.957 107.571 311.848 108.006C320.745 112.305 325.193 114.454 328.927 114.625C333.495 114.827 334.463 113.283 337.514 114.355C341.708 115.831 343.971 120.269 345.225 123.744C346.089 123.863 347.337 123.91 348.689 123.475C352.299 122.32 353.542 118.768 354.593 119.182C355.427 119.513 355.364 122.035 354.883 123.62C354.624 124.474 354.075 125.474 353.925 125.759C352.697 128.089 351.667 128.327 350.88 129.643C349.533 131.88 351.221 133.34 351.309 140.29C351.325 141.435 351.284 142.31 351.227 143.92C351.071 148.301 350.818 149.876 350.683 150.596C350.274 152.879 349.932 153.434 349.601 155.826C349.352 157.602 349.456 157.918 349.238 161.419C349.052 164.485 348.953 166.023 348.694 167.732C348.176 171.202 347.741 171.103 347.249 174.412C346.742 177.887 347.187 178.219 346.524 180.906C346.354 181.6 345.81 183.853 344.365 185.961C343.588 187.095 341.351 190.363 337.508 190.834C335.789 191.046 334.36 190.616 333.536 190.295C332.433 188.364 331.392 186.914 330.647 185.961C329.295 184.21 328.565 183.604 327.943 182.17C327.265 180.601 327.265 179.306 327.218 178.017C327.032 172.714 326.882 168.747 324.878 165.567C324.049 164.257 323.562 164.117 322.718 163.325C322.718 163.325 322.242 162.895 321.506 161.958C320.693 160.927 319.02 157.628 317.477 152.936C317.99 150.435 318.057 149.876 318.021 149.871C317.881 149.84 317.229 153.118 315.313 156.908C314.738 158.043 314.21 158.918 312.785 161.062C311.33 163.247 309.321 166.194 306.773 169.7C306.814 170.544 306.939 171.807 307.306 173.294C307.715 174.925 308.135 175.717 308.751 177.525C308.751 177.525 309.331 179.244 309.901 181.813C311.035 186.924 309.342 196.137 309.14 197.23L309.145 197.209Z" fill="white"/>
<path d="M309.145 197.209C309.202 197.219 309.445 197.25 309.502 197.261C309.559 197.271 309.802 197.302 309.859 197.312M309.145 197.209C308.963 197.162 308.787 197.121 308.611 197.079C309.217 197.167 309.673 197.235 309.859 197.312M309.145 197.209C309.409 197.276 309.673 197.349 309.942 197.421C309.953 197.411 309.958 197.39 309.958 197.39C309.958 197.364 309.922 197.338 309.859 197.312M309.145 197.209L309.14 197.23C309.342 196.137 311.035 186.924 309.901 181.813C309.331 179.244 308.751 177.525 308.751 177.525C308.135 175.717 307.715 174.925 307.306 173.294C306.939 171.807 306.814 170.544 306.773 169.7C309.321 166.194 311.33 163.247 312.785 161.062C314.21 158.918 314.738 158.043 315.313 156.908C317.229 153.118 317.881 149.84 318.021 149.871C318.057 149.876 317.99 150.435 317.477 152.936C319.02 157.628 320.693 160.927 321.506 161.958C322.242 162.895 322.718 163.325 322.718 163.325C323.562 164.117 324.049 164.257 324.878 165.567C326.882 168.747 327.032 172.714 327.218 178.017C327.265 179.306 327.265 180.601 327.943 182.17C328.565 183.604 329.295 184.21 330.647 185.961C331.392 186.914 332.433 188.364 333.536 190.295C334.36 190.616 335.789 191.046 337.508 190.834C341.351 190.363 343.588 187.095 344.365 185.961C345.81 183.853 346.354 181.6 346.524 180.906C347.187 178.219 346.742 177.887 347.249 174.412C347.741 171.103 348.176 171.202 348.694 167.732C348.953 166.023 349.052 164.485 349.238 161.419C349.456 157.918 349.352 157.602 349.601 155.826C349.932 153.434 350.274 152.879 350.683 150.596C350.818 149.876 351.071 148.301 351.227 143.92C351.284 142.31 351.325 141.435 351.309 140.29C351.221 133.34 349.533 131.88 350.88 129.643C351.667 128.327 352.697 128.089 353.925 125.759C354.075 125.474 354.624 124.474 354.883 123.62C355.364 122.035 355.427 119.513 354.593 119.182C353.542 118.768 352.299 122.32 348.689 123.475C347.337 123.91 346.089 123.863 345.225 123.744C343.971 120.269 341.708 115.831 337.514 114.355C334.463 113.283 333.495 114.827 328.927 114.625C325.193 114.454 320.745 112.305 311.848 108.006C310.957 107.571 308.591 106.416 305.256 105.702C303.992 105.427 302.946 105.298 302.283 105.23C306.364 108.716 310.45 112.206 314.531 115.691C313.096 115.552 312.091 115.712 311.423 115.893C311.17 115.961 310.729 116.08 310.082 116.199C309.694 116.266 309.197 116.318 308.456 116.302C308.285 116.302 307.482 116.287 306.473 116.085C302.972 115.391 299.689 113.273 299.689 113.273C298.373 112.424 298.679 112.429 297.141 111.393C295.38 110.207 292.454 108.239 291.91 108.778C291.139 109.549 294.743 115.878 299.435 118.286C299.896 118.524 301.123 119.109 301.061 119.275C300.983 119.493 298.85 118.907 297.55 118.503C295.297 117.799 292.63 116.971 289.906 115.018C287.166 113.061 286.229 111.305 285.882 111.533C285.401 111.844 286.53 115.546 289.238 118.472C292.034 121.492 295.577 122.667 295.369 123.138C295.307 123.294 294.67 123.216 293.396 123.066C292.159 122.916 291.413 122.828 290.579 122.527C289.461 122.123 288.772 121.543 288.301 121.186C285.815 119.291 282.309 118.053 281.998 118.503C281.796 118.799 283.117 119.601 286.561 123.195C288.342 125.054 289.461 126.37 291.123 126.546C291.361 126.572 291.869 126.598 291.926 126.815C291.993 127.069 291.387 127.349 289.248 128.571C289.248 128.571 287.265 129.669 286.115 130.083C285.898 130.161 285.67 130.223 285.369 130.285C283.728 130.632 283.552 130.197 281.128 130.554C279.471 130.803 278.523 130.953 277.519 131.637C276.996 131.999 276.876 132.211 275.623 133.175C274.867 133.755 274.194 134.221 274.002 134.345C272.827 135.096 271.32 134.935 270.351 134.884C267.974 134.754 268.689 135.225 263.888 135.438C257.71 135.707 255.11 134.982 255.007 135.438C254.852 136.137 260.636 139.104 266.416 138.928C267.172 138.907 268.482 138.809 268.523 139.032C268.596 139.425 264.707 140.482 263.267 140.839C252.899 143.402 243.966 140.533 243.702 141.59C243.521 142.31 247.591 144.159 251.097 145.184C254.655 146.225 257.684 146.437 257.664 146.706C257.648 146.898 256.094 146.769 254.484 146.95C249.968 147.452 248.751 149.969 244.401 151.761C239.336 153.848 235.214 152.817 235.162 153.553C235.121 154.153 237.866 155.096 240.709 155.277C247.13 155.686 251.796 152.072 251.983 152.393C252.174 152.729 247.41 157.359 239.621 159.7C230.807 162.346 224.204 160.228 224.101 160.979C223.987 161.787 231.636 164.697 239.44 162.672C239.714 162.6 239.942 162.532 240.092 162.491C238.849 163.402 237.446 164.412 235.556 165.738C231.175 168.814 226.488 172.097 220.041 176.028C208.958 182.781 207.954 182.118 200.372 187.214C198.337 188.586 196.415 189.902 193.334 191.186C189.818 192.657 188.875 192.294 184.132 194.076C183.412 194.34 183.194 194.438 178.715 196.417C169.393 200.544 169.155 200.642 168.249 201.114C165.152 202.734 163.06 204.164 159.59 206.525C156.244 208.799 153.5 210.875 151.465 212.476C148.533 213.019 144.038 214.045 138.834 216.085C134.359 217.841 115.136 225.479 106.177 244.599C104.639 247.882 102.826 251.745 102.195 257.219C101.195 265.826 104.173 269.265 102.283 278.768C101.439 283.025 100.206 285.914 98.2589 288.245C96.2237 290.673 94.0641 292.196 92.6245 293.071C92.64 293.071 92.6711 293.071 92.7125 293.071C102.05 293.045 108.699 284.64 108.984 284.935C109.212 285.169 105.131 290.508 97.451 296.468C93.7741 299.322 91.6561 300.472 91.8166 300.762C92.1325 301.342 100.9 297.634 109.419 292.237C109.667 292.077 109.88 291.942 110.035 291.844C110.268 291.694 110.465 291.564 110.641 291.445C112.992 289.86 123.583 282.455 129.999 269.467C133.842 261.688 134.82 254.671 135.628 248.902C136.861 240.078 136.317 233.403 141.18 226.914C143.003 224.48 144.996 222.854 146.41 221.859L146.41 222.341C146.374 223.226 146.229 224.521 145.69 225.95C145.571 226.261 145.468 226.494 145.39 226.66C144.924 227.68 144.582 228.426 144.163 229.239C143.484 230.544 142.889 231.497 142.795 231.647C141.708 233.434 140.191 240.844 142.909 250.062C144.872 256.717 148.249 261.632 150.957 264.816C150.351 269.431 148.937 272.735 147.845 274.796C147.575 275.314 146.011 277.566 142.795 282.015C140.268 285.505 139.238 286.872 137.498 288.509C136.182 289.767 134.97 290.679 134.106 291.285C133.904 291.398 133.655 291.585 133.474 291.885C133.355 292.082 133.303 292.258 133.277 292.382C132.811 294.459 132.93 297.421 132.93 297.421C132.987 298.675 132.904 299.534 132.749 301.212C132.64 302.382 132.428 303.853 131.848 306.443C131.449 308.229 130.853 310.881 129.921 313.615C128.797 316.914 127.249 319.736 124.147 325.391C122.811 327.83 122.008 330.529 120.853 333.061C120.853 333.061 119.352 336.36 120.33 337.276C120.46 337.395 121.143 337.96 121.413 338.177C121.998 338.654 122.153 338.763 122.122 338.882C122.055 339.146 121.169 338.902 119.792 339.529C119.771 339.534 119.761 339.539 119.745 339.55C118.772 340.005 117.984 341.424 117.984 341.424C117.109 342.988 116.545 344.816 116.4 345.298C118.963 349.98 121.527 354.656 124.09 359.337C128.016 356.049 129.144 353.102 129.455 351.021C129.792 348.757 129.238 347.416 129.958 344.563C130.641 341.849 131.708 341.481 132.852 339.037C135.369 333.667 131.863 331.927 134.106 325.806C134.81 323.889 136.431 320.58 137.037 317.862C137.083 317.654 137.234 316.971 137.524 316.075C137.839 315.112 138.269 314.076 138.922 312.823C140.154 310.451 142.324 307.592 143.438 306.054C146.923 301.233 147.306 299.943 150.475 296.209C152.029 294.381 152.702 293.786 152.713 293.796C152.749 293.827 144.194 304.63 142.34 308.069C141.48 309.658 140.941 311.321 140.941 311.321C140.745 311.927 140.595 312.512 140.46 313.102C140.853 315.319 140.708 317.038 140.496 318.219C140.444 318.504 140.118 319.752 139.46 322.232C138.86 324.511 138.782 324.78 138.694 325.075C138.264 326.525 138.016 327.095 137.296 329.089C135.545 333.941 135.354 335.179 135.985 335.992C136.234 336.318 136.55 336.489 136.747 336.577C137.218 336.976 137.446 337.188 137.446 337.188C137.446 337.188 137.394 337.152 137.291 337.074C137.042 337.344 136.643 337.737 136.074 338.11C135.297 338.618 134.893 338.628 134.245 339.037C132.63 341.404 131.014 343.77 129.398 346.137C131.956 350.415 134.51 354.692 137.068 358.97C138.005 358.328 139.31 357.297 140.553 355.749C141.827 354.159 143.401 352.196 143.593 349.622C143.66 348.695 143.603 346.992 144.1 344.361C144.111 344.309 144.116 344.273 144.126 344.216C144.556 341.947 145.079 339.167 146.094 336.168C147.425 332.237 147.974 332.724 148.062 330.984C148.161 328.985 147.529 326.344 147.456 323.584C147.441 323.247 147.441 322.88 147.441 322.88C147.43 322.17 147.43 321.026 147.482 319.617C147.493 319.301 147.508 319.063 147.508 319.006C147.591 317.96 147.902 316.432 149.233 311.378C150.242 307.54 150.745 305.624 150.973 304.941C151.035 304.754 151.107 304.552 151.19 304.319C152.531 300.606 154.473 297.002 155.488 295.138C156.887 292.574 158.176 290.197 159.864 287.09C156.648 290.171 153.427 293.252 150.211 296.334C156.291 291.052 160.289 287.395 160.046 287.09C160.035 287.069 159.994 287.048 159.978 286.997C159.906 286.712 160.828 286.427 161.599 285.552C162.283 284.77 162.065 284.692 163.386 282.864C165.364 280.125 167.529 277.09 170.693 274.656C172.682 273.123 173.427 273.092 175.017 272.315C175.333 272.16 175.613 272.015 175.882 271.865C176.762 271.373 177.379 270.948 177.638 270.767C181.004 268.426 182.578 267.634 185.033 265.495C185.033 265.495 186.814 263.941 188.653 261.875C192.143 257.944 197.083 241.911 198.668 219.581C199.222 223.863 199.595 228.674 199.605 233.931C199.611 237.416 199.455 240.689 199.202 243.724C200.921 243.087 202.412 242.533 203.614 242.082C210.605 239.462 212.273 238.752 215.349 238.11C220.641 237.002 222.386 237.53 226.39 237.354C228.622 237.256 230.144 237.017 231.408 236.846C235.395 236.297 253.417 236.121 265.007 232.274C269.331 230.834 275.535 227.96 282.221 221.497C279.3 214.863 276.379 208.234 273.459 201.6C277.498 207.623 281.542 213.641 285.582 219.664L285.918 220.171C285.908 220.15 285.893 220.124 285.877 220.104M309.859 197.312C309.942 197.323 310.02 197.333 310.103 197.349L310.01 197.437C310.01 197.437 310.035 197.442 310.046 197.447C310.553 197.582 311.066 197.722 311.599 197.872C314.303 198.643 314.432 198.819 317.286 199.653C323.189 201.383 324.909 201.3 327.073 201.999C327.726 202.206 328.161 202.408 328.865 202.709C332.775 204.386 334.727 205.225 335.825 206.877C336.747 208.265 336.887 209.741 336.897 210.456C336.944 213.387 334.96 215.624 333.878 216.784C325.53 225.728 315.613 229.596 312.04 236.209C311.713 236.81 311.273 237.742 310.253 238.623C307.71 240.813 305.39 239.379 301.309 241.217C298.844 242.325 298.922 243.19 296.84 243.63C295.23 243.967 294.37 243.63 291.206 243.092C285.618 242.155 284.707 242.621 284.142 241.839C282.506 239.576 288.161 232.833 290.848 229.814C293.671 227.799 295.401 227.758 296.483 228.162C298.373 228.861 299.29 231.279 301.936 231.559C302.356 231.606 302.702 231.58 302.92 231.559C303.842 229.576 306.006 225.635 310.429 222.439C315.981 218.431 321.693 218.048 323.842 218.012C318.58 218.276 314.443 219.156 311.594 219.933C311.594 219.933 302.086 222.522 294.339 223.957C293.547 224.102 291.641 224.433 289.776 223.599C289.212 223.346 288.699 223.118 288.166 222.615C287.576 222.056 286.136 220.378 286.053 220.301C286.053 220.301 286.053 220.301 286.043 220.29C286.006 220.259 285.97 220.213 285.929 220.166C285.913 220.145 285.898 220.13 285.877 220.104M285.877 220.104C285.784 219.995 285.685 219.845 285.587 219.658C285.685 219.803 285.779 219.954 285.877 220.104Z" stroke="white" stroke-width="0.439044" stroke-linecap="square" stroke-linejoin="round"/>
<path d="M26.9909 290.869C20.4451 269.871 17.1105 247.485 17.536 224.292C18.2009 188.044 27.9794 154.115 44.6441 124.63" stroke="white" stroke-width="33.8503" stroke-miterlimit="10"/>
<path d="M415.646 132.023C431.026 161.951 439.436 196.006 438.776 232.011C438.343 255.617 434.036 278.253 426.488 299.309" stroke="white" stroke-width="33.8503" stroke-miterlimit="10"/>
<path d="M56.1286 106.53C95.0629 51.5653 159.611 16.1972 232.022 17.5255C304.433 18.8537 367.52 56.49 404.414 112.749" stroke="white" stroke-width="33.8503" stroke-miterlimit="10"/>
<path d="M34.2993 310.721C64.414 381.252 131.914 432.211 212.326 438.197" stroke="white" stroke-width="33.8503" stroke-miterlimit="10"/>
<path d="M232.563 438.746C314.015 437.103 384.474 389.039 417.996 319.565" stroke="white" stroke-width="33.8503" stroke-miterlimit="10"/>
</svg>
