<?xml version="1.0" encoding="UTF-8"?><svg id="Layer_2" xmlns="http://www.w3.org/2000/svg" viewBox="0 0 128 128"><defs><style>.cls-1{fill:none;isolation:isolate;opacity:.5;stroke-linecap:round;stroke-width:10px;}.cls-1,.cls-2{stroke:#fff;}.cls-2{stroke-miterlimit:10;stroke-width:.75px;}.cls-2,.cls-3,.cls-4{fill:#fff;}.cls-3{fill-rule:evenodd;}.cls-3,.cls-4{stroke-width:0px;}.cls-4{opacity:0;}</style></defs><rect class="cls-4" x=".82" y="1.26" width="128" height="128"/><path class="cls-2" d="m90.88,26.8c0,13.69-11.09,24.78-24.78,24.78s-24.78-11.09-24.78-24.78S52.41,2.02,66.1,2.02s24.78,11.09,24.78,24.78Z"/><path class="cls-1" d="m81.45,125.43c-4.5.32-9.59.49-15.35.49-49.56,0-49.56-12.48-49.56-27.88s22.19-27.88,49.56-27.88c17.85,0,33.49,5.31,42.22,13.27-3.2-.88-7.69-.88-14.34-.88-10.22,0-15.33,0-18.51,3.18-3.18,3.18-3.18,8.29-3.18,18.51s0,15.33,3.18,18.51c1.47,1.47,3.36,2.26,5.98,2.69Z"/><path class="cls-3" d="m93.98,125.92c-10.22,0-15.33,0-18.51-3.17-3.18-3.18-3.18-8.29-3.18-18.51s0-15.33,3.18-18.51c3.18-3.18,8.29-3.18,18.51-3.18s15.33,0,18.51,3.18c3.18,3.18,3.18,8.29,3.18,18.51s0,15.33-3.18,18.51c-3.18,3.17-8.29,3.17-18.51,3.17Zm3.61-31.32c0-2-1.62-3.61-3.61-3.61s-3.61,1.62-3.61,3.61v6.02h-6.02c-2,0-3.61,1.62-3.61,3.61s1.62,3.61,3.61,3.61h6.02v6.02c0,2,1.62,3.61,3.61,3.61s3.61-1.62,3.61-3.61v-6.02h6.02c2,0,3.61-1.62,3.61-3.61s-1.62-3.61-3.61-3.61h-6.02v-6.02Z"/></svg>