<svg width="31" height="31" viewBox="0 0 31 31" fill="none" xmlns="http://www.w3.org/2000/svg">
<path d="M28.6796 15.0945C28.6796 22.5973 22.5973 28.6795 15.0945 28.6795C7.59168 28.6795 1.50945 22.5973 1.50945 15.0945C1.50945 7.59168 7.59168 1.50945 15.0945 1.50945C22.5973 1.50945 28.6796 7.59168 28.6796 15.0945Z" fill="#E8FFF0" stroke="#0BC241" stroke-width="3.0189"/>
<path d="M12.1223 13.4872L14.5763 8.05322C15.0645 8.05322 15.5326 8.24406 15.8778 8.58375C16.223 8.92344 16.4169 9.38416 16.4169 9.86455V12.2797H19.8894C20.0672 12.2777 20.2434 12.3138 20.4057 12.3854C20.568 12.4571 20.7125 12.5627 20.8292 12.6948C20.9459 12.8269 21.032 12.9823 21.0816 13.1505C21.1312 13.3186 21.1431 13.4953 21.1164 13.6683L20.2697 19.1023C20.2254 19.3903 20.0768 19.6527 19.8513 19.8413C19.6258 20.03 19.3386 20.132 19.0427 20.1287H12.1223M12.1223 13.4872V20.1287M12.1223 13.4872H10.2817C9.95629 13.4872 9.64419 13.6144 9.41408 13.8409C9.18396 14.0674 9.05469 14.3745 9.05469 14.6948V18.9212C9.05469 19.2415 9.18396 19.5486 9.41408 19.7751C9.64419 20.0015 9.95629 20.1287 10.2817 20.1287H12.1223" stroke="#2AB359" stroke-width="1.50945" stroke-linecap="round" stroke-linejoin="round"/>
</svg>
