<svg width="512" height="512" viewBox="50 0 411 411" fill="none" xmlns="http://www.w3.org/2000/svg">
<g clip-path="url(#clip0_302_4674)">
<path d="M96.7792 301.608C111.141 325.349 130.105 344.621 151.884 358.997C156.474 362.029 157.927 368.078 155.222 372.917L155.218 372.919C152.172 378.383 145.106 380.155 139.926 376.735C115.621 360.7 94.458 339.196 78.4309 312.703C62.4039 286.21 53.1795 257.484 50.254 228.514C49.6291 222.34 54.4825 216.901 60.7337 216.735L60.741 216.731C66.2869 216.588 70.9705 220.682 71.5254 226.155C74.1482 252.115 82.4185 277.861 96.7828 301.606L96.7792 301.608Z" fill="#160C27"/>
<path d="M150.335 43.5268C153.169 48.2122 151.931 54.3366 147.441 57.5948C101.646 90.8267 74.8718 141.616 71.0112 194.562C70.6118 200.051 66.0487 204.368 60.5144 204.513C54.2574 204.677 49.2463 199.481 49.6984 193.27C54.0072 134.24 83.8511 77.6126 134.899 40.5428C139.992 36.8457 147.119 38.2102 150.333 43.5232L150.335 43.5268Z" fill="#160C27"/>
<path d="M350.224 373.933C353.44 379.249 351.341 386.195 345.702 388.991C289.177 416.998 225.165 417.154 170.873 393.569C165.162 391.087 162.884 384.242 165.935 378.77C168.632 373.936 174.575 371.898 179.622 374.092C228.312 395.251 285.725 395.106 336.42 369.966C341.39 367.501 347.387 369.244 350.222 373.929L350.224 373.933Z" fill="#160C27"/>
<path d="M345.249 32.2417C342.551 37.0761 336.609 39.114 331.562 36.9201C282.871 15.761 225.459 15.9059 174.768 41.0439C169.797 43.5086 163.8 41.7662 160.966 37.0808C157.75 31.7642 159.849 24.8183 165.488 22.023C222.013 -5.98401 286.024 -6.14007 340.313 17.4464C346.024 19.9286 348.302 26.7734 345.251 32.2453L345.249 32.2417Z" fill="#160C27"/>
<path d="M461.511 217.772C457.205 276.805 427.355 333.431 376.308 370.501C371.214 374.198 364.088 372.834 360.874 367.521C358.039 362.835 359.277 356.711 363.767 353.453C409.566 320.219 436.34 269.429 440.201 216.484C440.6 210.995 445.163 206.677 450.698 206.532C456.958 206.366 461.966 211.565 461.514 217.775L461.511 217.772Z" fill="#160C27"/>
<path d="M432.869 98.2842C448.896 124.777 458.12 153.503 461.046 182.473C461.671 188.648 456.817 194.087 450.57 194.25L450.566 194.252C445.02 194.395 440.335 190.306 439.784 184.831C437.161 158.871 428.893 133.129 414.529 109.384C400.164 85.6398 381.201 66.3677 359.422 51.9914C354.828 48.9617 353.379 42.9107 356.082 38.0682L356.089 38.0638C359.135 32.5999 366.205 30.8256 371.382 34.2416C395.681 50.2815 416.847 71.7833 432.874 98.2762L432.869 98.2842Z" fill="#20AF9E"/>
<path d="M332.06 177.035C332.118 177.043 332.361 177.075 332.414 177.083C332.468 177.092 332.715 177.124 332.769 177.132C332.583 177.059 332.13 176.99 331.528 176.908C331.701 176.949 331.878 176.994 332.056 177.039C332.32 177.104 332.579 177.169 332.851 177.234C332.86 177.226 332.864 177.218 332.864 177.205C332.864 177.181 332.831 177.157 332.769 177.132C332.851 177.144 332.93 177.153 333.012 177.165L332.917 177.25C332.917 177.25 332.942 177.258 332.954 177.258C333.457 177.389 333.973 177.523 334.496 177.665C337.188 178.401 337.312 178.568 340.148 179.366C346.019 181.017 347.73 180.94 349.886 181.599C350.533 181.798 350.966 181.989 351.667 182.278C355.554 183.877 357.5 184.678 358.589 186.253C359.504 187.579 359.644 188.982 359.656 189.662C359.702 192.46 357.731 194.588 356.655 195.694C348.352 204.221 338.491 207.911 334.933 214.22C334.612 214.794 334.171 215.68 333.156 216.522C330.625 218.609 328.321 217.247 324.264 218.996C321.811 220.053 321.894 220.879 319.816 221.298C318.216 221.62 317.359 221.294 314.213 220.786C308.656 219.891 307.749 220.334 307.188 219.594C305.56 217.438 311.187 211.006 313.859 208.126C316.666 206.202 318.389 206.165 319.461 206.548C321.341 207.215 322.252 209.521 324.887 209.79C325.303 209.831 325.649 209.81 325.864 209.79C326.783 207.902 328.935 204.14 333.334 201.093C338.854 197.269 344.535 196.907 346.674 196.87C341.443 197.122 337.328 197.96 334.492 198.705C334.492 198.705 325.035 201.174 317.33 202.541C316.543 202.679 314.646 202.992 312.795 202.199C312.23 201.959 311.723 201.739 311.196 201.259C310.61 200.727 309.18 199.128 309.093 199.055C309.093 199.055 309.089 199.051 309.081 199.046C309.048 199.014 309.006 198.973 308.965 198.928C308.949 198.912 308.932 198.892 308.916 198.872C308.825 198.766 308.722 198.627 308.627 198.448C308.722 198.591 308.817 198.729 308.916 198.872C308.932 198.892 308.945 198.912 308.961 198.937L308.969 198.928L308.631 198.448C304.612 192.704 300.592 186.965 296.573 181.221C299.479 187.546 302.381 193.868 305.288 200.194C298.642 206.357 292.471 209.098 288.167 210.469C276.64 214.139 258.715 214.309 254.749 214.83C253.496 214.997 251.979 215.221 249.757 215.314C245.775 215.485 244.043 214.977 238.774 216.034C235.715 216.649 234.058 217.324 227.103 219.822C225.908 220.249 224.424 220.782 222.713 221.388C222.969 218.491 223.121 215.371 223.113 212.052C223.1 207.04 222.729 202.451 222.177 198.367C220.602 219.663 215.688 234.954 212.217 238.701C210.391 240.674 208.614 242.155 208.614 242.155C206.169 244.193 204.607 244.95 201.259 247.183C201.003 247.354 200.389 247.76 199.511 248.232C199.243 248.375 198.967 248.513 198.654 248.66C197.071 249.4 196.329 249.432 194.35 250.889C191.204 253.208 189.048 256.104 187.082 258.716C185.766 260.461 185.985 260.534 185.305 261.278C184.538 262.116 183.619 262.389 183.693 262.657C183.705 262.706 183.746 262.731 183.763 262.747C184.006 263.036 180.028 266.526 173.984 271.562C177.183 268.625 180.387 265.688 183.586 262.747C181.908 265.708 180.626 267.974 179.236 270.423C178.226 272.201 176.297 275.638 174.961 279.182C174.879 279.405 174.809 279.597 174.747 279.771C174.52 280.422 174.021 282.249 173.015 285.91C171.692 290.731 171.383 292.187 171.305 293.188C171.3 293.241 171.288 293.468 171.28 293.773C171.226 295.12 171.23 296.21 171.239 296.885C171.239 296.885 171.243 297.235 171.251 297.561C171.325 300.193 171.952 302.711 171.853 304.619C171.766 306.278 171.218 305.815 169.895 309.565C168.889 312.425 168.365 315.077 167.936 317.242C167.924 317.294 167.92 317.331 167.908 317.38C167.413 319.89 167.471 321.513 167.4 322.4C167.207 324.857 165.644 326.724 164.379 328.241C163.142 329.718 161.843 330.703 160.912 331.313C158.368 327.233 155.828 323.152 153.285 319.072C154.893 316.814 156.5 314.557 158.108 312.299C158.751 311.913 159.151 311.9 159.926 311.416C160.491 311.062 160.891 310.684 161.138 310.428C161.237 310.501 161.291 310.538 161.295 310.538C161.299 310.529 161.068 310.338 160.598 309.952C160.404 309.866 160.087 309.704 159.84 309.394C159.213 308.617 159.403 307.438 161.142 302.812C161.856 300.913 162.107 300.364 162.532 298.985C162.618 298.704 162.697 298.448 163.294 296.275C163.946 293.908 164.276 292.72 164.325 292.447C164.535 291.32 164.68 289.681 164.292 287.57C164.424 287.004 164.577 286.451 164.774 285.869C164.774 285.869 165.31 284.283 166.164 282.765C168.011 279.487 176.515 269.187 176.478 269.154C176.47 269.146 175.798 269.711 174.256 271.456C171.107 275.016 170.727 276.249 167.256 280.845C166.151 282.31 163.991 285.039 162.767 287.297C162.119 288.493 161.691 289.478 161.377 290.397C161.085 291.251 160.94 291.902 160.895 292.101C160.289 294.697 158.681 297.85 157.98 299.68C155.75 305.518 159.238 307.177 156.735 312.299C155.598 314.63 154.538 314.98 153.854 317.567C153.136 320.289 153.689 321.57 153.355 323.726C153.046 325.707 151.92 328.522 148.02 331.654C145.473 327.192 142.921 322.729 140.373 318.267C140.517 317.807 141.078 316.066 141.948 314.573C141.948 314.573 142.727 313.222 143.7 312.783C143.716 312.775 143.729 312.771 143.745 312.763C145.114 312.165 145.996 312.397 146.066 312.144C146.099 312.035 145.943 311.925 145.361 311.473C145.093 311.262 144.413 310.729 144.285 310.615C143.308 309.74 144.809 306.596 144.809 306.596C145.959 304.183 146.755 301.608 148.086 299.281C151.17 293.891 152.712 291.194 153.829 288.05C154.757 285.442 155.346 282.912 155.742 281.212C156.319 278.742 156.529 277.343 156.636 276.22C156.789 274.617 156.871 273.8 156.818 272.604C156.818 272.604 156.698 269.78 157.164 267.799C157.193 267.681 157.238 267.515 157.358 267.327C157.539 267.043 157.787 266.864 157.989 266.758C158.846 266.18 160.054 265.31 161.365 264.114C163.097 262.552 164.123 261.25 166.634 257.922C169.829 253.679 171.387 251.532 171.659 251.039C172.747 249.07 174.149 245.922 174.755 241.52C172.063 238.485 168.703 233.799 166.753 227.449C164.053 218.662 165.558 211.592 166.642 209.888C166.733 209.741 167.33 208.838 168.002 207.589C168.419 206.816 168.757 206.104 169.223 205.132C169.297 204.973 169.4 204.754 169.519 204.453C170.051 203.09 170.2 201.853 170.233 201.011V200.552C168.827 201.504 166.84 203.049 165.03 205.368C160.19 211.555 160.734 217.926 159.506 226.339C158.706 231.843 157.729 238.53 153.907 245.954C147.526 258.341 136.997 265.403 134.655 266.913C134.478 267.026 134.284 267.149 134.053 267.295C133.896 267.393 133.69 267.519 133.439 267.669C124.967 272.815 116.248 276.35 115.934 275.797C115.774 275.516 117.88 274.426 121.537 271.705C129.172 266.022 133.233 260.929 133.01 260.705C132.726 260.42 126.117 268.438 116.825 268.467C116.784 268.467 116.755 268.467 116.734 268.467C118.165 267.633 120.317 266.18 122.337 263.862C124.27 261.64 125.499 258.882 126.34 254.823C128.22 245.759 125.26 242.484 126.249 234.271C126.88 229.052 128.681 225.366 130.211 222.238C139.12 204.005 158.24 196.72 162.692 195.048C167.87 193.099 172.339 192.123 175.258 191.606C177.282 190.077 180.011 188.095 183.338 185.931C186.789 183.678 188.867 182.315 191.95 180.769C192.853 180.317 193.088 180.224 202.36 176.29C206.816 174.403 207.031 174.309 207.744 174.057C212.464 172.356 213.4 172.702 216.9 171.299C219.963 170.074 221.876 168.821 223.9 167.511C231.44 162.654 232.438 163.285 243.466 156.845C249.876 153.099 254.539 149.966 258.901 147.029C260.781 145.768 262.178 144.804 263.411 143.933C263.262 143.974 263.036 144.039 262.76 144.104C254.997 146.033 247.391 143.262 247.502 142.489C247.605 141.773 254.172 143.791 262.937 141.269C270.683 139.04 275.424 134.622 275.23 134.296C275.045 133.991 270.407 137.441 264.017 137.046C261.193 136.871 258.46 135.976 258.501 135.399C258.55 134.699 262.652 135.68 267.69 133.69C272.015 131.982 273.227 129.582 277.72 129.106C279.324 128.935 280.866 129.057 280.882 128.874C280.903 128.617 277.889 128.414 274.352 127.421C270.864 126.445 266.816 124.684 266.993 123.992C267.257 122.987 276.141 125.721 286.452 123.276C287.882 122.939 291.749 121.926 291.679 121.555C291.638 121.344 290.335 121.433 289.581 121.458C283.834 121.625 278.079 118.793 278.236 118.13C278.339 117.695 280.924 118.387 287.07 118.13C291.844 117.931 291.131 117.475 293.497 117.601C294.458 117.654 295.959 117.801 297.129 117.085C297.319 116.967 297.991 116.523 298.745 115.97C299.995 115.055 300.11 114.847 300.629 114.502C301.627 113.851 302.571 113.704 304.22 113.472C306.632 113.135 306.805 113.546 308.442 113.212C308.738 113.151 308.969 113.09 309.18 113.017C310.322 112.618 312.292 111.577 312.292 111.577C314.419 110.413 315.021 110.145 314.955 109.905C314.898 109.701 314.391 109.673 314.156 109.648C312.502 109.482 311.389 108.225 309.621 106.451C306.195 103.022 304.88 102.257 305.086 101.976C305.395 101.545 308.883 102.729 311.356 104.535C311.826 104.877 312.511 105.426 313.624 105.812C314.452 106.101 315.194 106.183 316.427 106.325C317.693 106.467 318.328 106.541 318.394 106.394C318.6 105.943 315.079 104.824 312.296 101.944C309.604 99.1531 308.483 95.6221 308.957 95.3251C309.303 95.1055 310.231 96.7815 312.96 98.6527C315.673 100.512 318.319 101.305 320.562 101.98C321.856 102.367 323.975 102.924 324.054 102.717C324.116 102.558 322.899 101.997 322.438 101.773C317.771 99.4785 314.184 93.4376 314.955 92.7054C315.495 92.1887 318.406 94.0681 320.158 95.199C321.692 96.1875 321.382 96.1794 322.693 96.9889C322.693 96.9889 325.958 99.0067 329.442 99.6697C330.448 99.8609 331.248 99.8731 331.413 99.8772C332.151 99.8894 332.645 99.8447 333.029 99.7755C333.672 99.6616 334.113 99.5518 334.364 99.4826C335.028 99.3077 336.03 99.1572 337.456 99.2873C333.396 95.9597 329.335 92.6362 325.274 89.3086C325.934 89.3737 326.977 89.4998 328.23 89.7561C331.549 90.4354 333.903 91.5419 334.789 91.9528C343.636 96.0533 348.059 98.1036 351.774 98.2622C356.317 98.4575 357.278 96.9849 360.312 98.0059C364.484 99.4135 366.735 103.644 367.984 106.96C368.845 107.069 370.082 107.114 371.43 106.703C375.021 105.605 376.258 102.212 377.301 102.611C378.129 102.928 378.068 105.332 377.589 106.846C377.334 107.659 376.786 108.611 376.637 108.884C375.417 111.105 374.39 111.333 373.607 112.59C372.271 114.721 373.949 116.117 374.036 122.743C374.052 123.834 374.011 124.667 373.953 126.209C373.801 130.387 373.545 131.892 373.413 132.576C373.005 134.756 372.663 135.281 372.337 137.567C372.086 139.263 372.193 139.56 371.979 142.904C371.793 145.829 371.694 147.298 371.439 148.925C370.927 152.236 370.49 152.143 370.004 155.299C369.497 158.615 369.942 158.928 369.282 161.491C369.113 162.15 368.569 164.298 367.135 166.307C366.364 167.389 364.133 170.505 360.316 170.953C358.605 171.152 357.183 170.745 356.366 170.44C355.27 168.602 354.231 167.219 353.489 166.307C352.145 164.639 351.415 164.062 350.801 162.691C350.129 161.194 350.129 159.961 350.08 158.729C349.894 153.672 349.746 149.889 347.75 146.854C346.926 145.605 346.439 145.471 345.602 144.714C345.602 144.714 345.128 144.304 344.399 143.413C343.587 142.428 341.925 139.284 340.392 134.809C340.903 132.421 340.969 131.892 340.932 131.884C340.791 131.852 340.14 134.984 338.24 138.596C337.671 139.678 337.139 140.512 335.725 142.558C334.282 144.641 332.278 147.452 329.743 150.8C329.784 151.606 329.908 152.81 330.275 154.225C330.679 155.783 331.099 156.536 331.714 158.261C331.714 158.261 332.291 159.9 332.855 162.349C333.985 167.227 332.299 176.014 332.097 177.051L332.06 177.035Z" fill="#160C27"/>
</g>
<defs>
<clipPath id="clip0_302_4674">
<rect width="512" height="512" fill="white"/>
</clipPath>
</defs>
</svg>
