<?xml version="1.0" encoding="UTF-8"?>
<svg id="Layer_2" data-name="Layer 2" xmlns="http://www.w3.org/2000/svg" width="128" height="128" viewBox="0 0 128 128">
  <defs>
    <style>
      .cls-1 {
        stroke: #000;
        stroke-width: 8px;
      }

      .cls-1, .cls-2 {
        fill: none;
        stroke-linecap: round;
      }

      .cls-2 {
        stroke: #27c1aa;
        stroke-width: 7.96px;
      }

      .cls-3 {
        fill: #fff;
        opacity: 0;
        stroke-width: 0px;
      }
    </style>
  </defs>
  <rect class="cls-3" x="0" y="-.21" width="128" height="128"/>
  <path class="cls-1" d="m40.33,43.52h48.44"/>
  <path class="cls-1" d="m40.33,64.71h33.31"/>
  <path class="cls-2" d="m4.51,84.36c0,1.16.01,3.86.88,7.23.26,1.03,1.21,4.72,2.89,7.08,5.71,8.01,24.09,6.53,30.15,6.05.36-.03,3.1-.11,6.66.28,1.9.21,3.7.63,5.42,1.63,1.7.99,2.95,2.32,4.06,3.85,1.06,1.46,2.17,3.33,3.45,5.5l3.41,5.77c1.51,2.56,5.38,2.56,6.89,0l3.41-5.77c1.29-2.17,2.39-4.04,3.45-5.5,1.11-1.53,2.36-2.86,4.06-3.85,1.72-1,3.52-1.42,5.42-1.63,3.52-.39,6.25-.31,6.66-.28,9.69.76,20.29,1.6,26.6-3.6,2.64-2.17,4.06-5.01,4.25-5.41,1.59-3.26,1.69-6.25,1.68-7.6-.1-12.28.42-24.57.26-36.85-.09-6.96-.33-13.91-.39-20.87-.07-8.48.01-13.17-3.25-17.5-2.59-3.44-5.96-4.88-8.76-6.07-2.65-1.13-5.16-1.75-23.8-2.19-2-.05-7.13-.16-13.79-.22-1.44-.01-4.57-.04-8.63-.04-6.25,0-10.23.04-17.27.11-6.24.06-18.42.18-27.46,1.86-1.51.28-5.32.86-8.32,2.79,0,0-2.76,1.78-4.77,4.38-3.85,5.01-3.65,11.52-3.56,15.98h0c-.43,28.65.41,49.59.4,54.89Z"/>
</svg>