<svg width="28" height="29" viewBox="0 0 28 29" fill="none" xmlns="http://www.w3.org/2000/svg">
<mask id="mask0_1086_952" style="mask-type:alpha" maskUnits="userSpaceOnUse" x="0" y="0" width="28" height="29">
<path d="M1.59017 19.0557C1.16592 17.7612 0.939311 16.3779 0.944848 14.9413C0.953501 12.696 1.52868 10.5862 2.53432 8.74529" stroke="#113C6E" stroke-width="1.2" stroke-miterlimit="10"/>
<path d="M25.5195 8.86621C26.4989 10.7057 27.0504 12.8071 27.0418 15.0373C27.0361 16.4995 26.7897 17.9051 26.3411 19.2158" stroke="#113C6E" stroke-width="1.2" stroke-miterlimit="10"/>
<path d="M3.22799 7.61444C5.59001 4.17574 9.55595 1.92762 14.0418 1.9449C18.5277 1.96218 22.4686 4.23625 24.8041 7.68703" stroke="#113C6E" stroke-width="1.2" stroke-miterlimit="10"/>
<path d="M2.0625 20.2783C3.9909 24.619 8.21714 27.7142 13.2027 28.0127" stroke="#113C6E" stroke-width="1.2" stroke-miterlimit="10"/>
<path d="M14.4512 28.029C19.4943 27.8541 23.815 24.8145 25.8288 20.4822" stroke="#113C6E" stroke-width="1.2" stroke-miterlimit="10"/>
<path d="M8.58283 20.1831L8.67577 10.1117L9.78251 10.1219L13.7574 14.1709L17.8341 10.1962L18.9131 10.2061L18.8202 20.2775L17.2154 20.2627L17.2839 12.8475L13.7388 16.1907L10.256 12.7827L10.1876 20.1979L8.58283 20.1831Z" fill="#113C6E"/>
</mask>
<g mask="url(#mask0_1086_952)">
<rect x="-2.9375" y="-3.29785" width="35.8966" height="32.3575" fill="url(#paint0_linear_1086_952)"/>
</g>
<defs>
<linearGradient id="paint0_linear_1086_952" x1="32.9591" y1="15.9062" x2="-6.08179" y2="16.4281" gradientUnits="userSpaceOnUse">
<stop stop-color="white"/>
<stop offset="1" stop-color="white"/>
</linearGradient>
</defs>
</svg>
