<?xml version="1.0" encoding="UTF-8"?>
<svg id="Mustang-Logo-File" xmlns="http://www.w3.org/2000/svg" viewBox="0 0 970.66 970.26">
<defs>
  <style>
    .horse {
      stroke-width: 0px;
    }
    .horse,
    .circle-bars {
      fill: #fff;
    }
    .circle-bars {
      stroke: #fff;
      stroke-miterlimit: 10;
    }
  </style>
</defs>
<g id="Mustang-Logo-Graphics">
  <path class="circle-bars calendar" d="m72.6,485.12c0,70.01,17.43,135.95,48.2,193.71l-62.49,36.08C21.43,646.52.5,568.26.5,485.12s20.93-161.4,57.81-229.79l62.49,36.08c-30.77,57.76-48.2,123.7-48.2,193.71Z"/>
  <path class="circle-bars contacts" d="m470.83.51v72.14c-141.52,4.89-264.95,81.03-335.5,193.66l-62.49-36.08C155.91,96.06,302.62,5.44,470.83.51Z"/>
  <path class="circle-bars files" d="m470.83,897.59v72.15c-168.21-4.93-314.92-95.55-398-229.72l62.5-36.08c70.56,112.63,193.98,188.76,335.5,193.65Z"/>
  <path class="circle-bars mail" d="m897.82,230.23l-62.49,36.08c-70.55-112.63-193.98-188.77-335.5-193.66V.51c168.21,4.93,314.92,95.55,397.99,229.72Z"/>
  <path class="circle-bars meet" d="m897.83,740.02c-83.08,134.17-229.79,224.79-398,229.72v-72.15c141.52-4.89,264.94-81.02,335.5-193.65l62.5,36.08Z"/>
  <path class="circle-bars chat" d="m970.16,485.12c0,83.14-20.93,161.4-57.81,229.79l-62.5-36.08c30.77-57.76,48.2-123.7,48.2-193.71s-17.43-135.95-48.2-193.71l62.5-36.08c36.88,68.39,57.81,146.65,57.81,229.79Z"/>
  <path class="horse inner" d="m243.23,767.49c-.14-.03-.27-.12-.34-.25l-17.34-30.76c-.07-.12-.08-.26-.04-.39.46-1.5,1.74-5.33,3.61-8.59.07-.13,1.88-3.25,4.2-4.31l.11-.05c1.85-.82,3.3-.98,4.26-1.09.17-.02.34-.04.49-.06-.2-.17-.51-.42-.86-.69l-.34-.27s-2.1-1.66-2.46-1.99c-2.41-2.2.71-9.04,1.07-9.82,1.03-2.19,1.95-4.48,2.84-6.7,1.36-3.39,2.77-6.89,4.6-10.14,6.97-12.34,10.47-18.54,12.98-25.72,2.09-5.97,3.44-11.8,4.32-15.66,1.41-6.12,1.81-9.2,2.02-11.4l.03-.33c.32-3.4.5-5.27.38-7.9-.01-.27-.26-6.61.8-11.17.07-.29.19-.74.5-1.24.48-.77,1.14-1.23,1.62-1.49,2.71-1.85,5.19-3.82,7.55-6,3.86-3.53,6.2-6.52,11.88-14.16,9-12.11,10.98-15.07,11.35-15.76,3.52-6.45,5.85-13.67,6.93-21.47-8.44-9.69-14.53-20.57-18.1-32.34-5.94-19.57-3.06-36.2-.2-40.76l.08-.13c1.06-1.67,2.06-3.4,2.98-5.12.95-1.77,1.7-3.39,2.75-5.63.17-.35.4-.85.66-1.52.94-2.44,1.48-5.04,1.59-7.75v-.07c-4.22,3-7.88,6.5-10.9,10.42-8.43,10.93-9.61,22.37-10.98,35.62-.4,3.93-.82,7.99-1.44,12.31-1.8,12.52-4.04,28.09-12.74,45.22-13.54,26.63-35.15,42.68-43.82,48.34-.4.26-.84.55-1.37.88-.36.22-.83.52-1.4.87-18.02,11.09-36.42,18.88-39.53,18.88-.42,0-.71-.13-.85-.39-.42-.75.41-1.31,3.89-3.68,2.19-1.49,5.19-3.53,8.95-6.37,12.99-9.8,21.35-18.78,24.47-22.78-4.97,4.5-17.96,16.19-34.85,16.24h-.2c-.23,0-.42-.15-.48-.37-.06-.22.03-.45.23-.56,4.81-2.84,9.04-6.36,12.58-10.47,4.32-5.03,7.08-11.36,8.96-20.54,2.32-11.35,1.38-18.55.39-26.18-.8-6.1-1.62-12.42-.6-20.99,1.44-12.07,5.47-20.43,9.02-27.8,13.16-27.3,39.41-49.57,73.91-62.72,9.16-3.49,18.74-6.15,28.45-7.91,5.94-4.55,12.08-8.91,18.25-12.98l.26-.17c7.72-5.1,12.38-8.19,19.31-11.72,1.87-.95,2.49-1.21,18.31-8.02l6.52-2.8c8.94-3.83,9.47-4.06,11.04-4.63,5.39-1.97,8.63-2.75,11.49-3.45,2.86-.69,5.32-1.29,9.24-2.88,6.74-2.73,10.97-5.5,15.46-8.45l.32-.21c8.8-5.75,13.62-8.13,19.73-11.15,5.85-2.89,12.49-6.17,24.64-13.36,14.84-8.79,25.53-16.09,34.96-22.53,3.05-2.08,5.66-3.88,8.02-5.55-3.76.85-7.74,1.28-11.83,1.28-11.38,0-20.47-3.31-21.94-5.01-.24-.27-.34-.54-.3-.81.11-.81,1.22-.81,1.82-.81.77,0,1.84.08,3.19.19,2.23.17,5.28.41,8.9.41,7.5,0,14.51-.98,21.44-3,14.59-4.26,24.05-11.81,26.75-14.58-.21.1-.43.21-.64.32-3.68,1.82-11.33,5.62-21.2,5.62-.78,0-1.56-.02-2.34-.07-5.41-.34-11.32-1.96-12.64-3.47-.24-.27-.35-.56-.33-.85.08-1.07,1.47-1.12,4.26-1.21,3.71-.13,9.92-.35,16.88-3.14,3.88-1.55,6.6-3.33,9.23-5.05,3.98-2.6,7.42-4.85,13.64-5.52,1.67-.18,3.29-.22,4.61-.25-.35-.06-.71-.13-1.08-.19-2.71-.47-6.82-1.19-11.25-2.45-4.78-1.36-17.69-5.89-17.03-8.48.21-.8,1.26-.91,2.37-.91,1.27,0,3.1.18,5.42.4,3.88.38,9.19.89,15.33.89,7.66,0,14.65-.78,21.35-2.4,4.26-1.02,9.2-2.46,10.93-3.26-.2-.01-.46-.02-.79-.02-.64,0-1.37.03-2.03.05l-.87.03c-.38.01-.76.02-1.13.02-11.59,0-23.06-5.18-24.8-7.37-.25-.32-.35-.63-.29-.91.17-.73,1.17-.73,1.76-.73.67,0,1.6.06,2.77.13,2.28.14,5.41.34,9.71.34,2.02,0,4.13-.05,6.25-.14,5.59-.24,7.82-.63,9.45-.91,1.17-.2,2.01-.35,3.49-.35.48,0,1.03.02,1.68.05l.5.03c.65.04,1.39.08,2.16.08,2.26,0,3.94-.39,5.28-1.22.45-.28,1.97-1.31,3.62-2.54,1.53-1.14,2.31-1.8,2.88-2.28.5-.42.86-.73,1.42-1.1,2.31-1.53,4.45-1.89,8.35-2.45,1.61-.23,2.96-.34,4.24-.34.51,0,.95.02,1.37.03.37.01.72.03,1.08.03.66,0,1.52-.04,2.85-.31.65-.13,1.14-.26,1.61-.43,2.52-.89,6.94-3.25,6.99-3.28.84-.47,1.58-.87,2.22-1.22,1.88-1.03,3.18-1.75,3.51-2.08-.24-.09-.92-.15-1.16-.17l-.16-.02c-3.61-.37-6.12-2.93-9.6-6.48l-.99-1.01c-3.64-3.69-6.2-6.02-7.89-7.55-2.32-2.1-2.94-2.67-2.44-3.37.2-.28.56-.41,1.1-.41,2.48,0,9.2,2.76,13.82,6.18l.3.22c1.05.79,2.48,1.86,4.71,2.65,1.82.64,3.49.83,6.24,1.15,1.68.19,2.9.33,3.6.34-.48-.35-1.37-.86-2.24-1.35-2.9-1.65-7.29-4.16-11.15-8.21-5.6-5.89-8.18-13.07-7.93-15.12.05-.41.2-.69.45-.85.13-.08.27-.12.42-.12.58,0,1.14.58,2.26,1.74,1.41,1.46,3.54,3.66,6.95,6.03,6.08,4.23,11.93,6.01,17.1,7.57,2.17.66,4.65,1.32,6.2,1.62-.65-.35-1.41-.72-1.81-.92l-.5-.24c-9.13-4.55-16.77-15.68-17.43-19.97-.12-.77,0-1.33.34-1.67.23-.23.57-.34.98-.34,2.07,0,6.78,2.97,11.43,6.01,1.76,1.15,2.47,1.73,3.1,2.24.63.51,1.18.95,2.64,1.87.07.05,7.42,4.61,15.12,6.09,1.43.28,2.99.44,4.38.47.2,0,.39,0,.58,0,1.17,0,2.12-.07,3-.23,1.36-.24,2.31-.48,2.99-.66,1.44-.38,3.04-.58,4.76-.58.29,0,.58,0,.87.02l-26.43-21.94c-.17-.14-.23-.37-.14-.58.08-.19.26-.31.46-.31.02,0,.03,0,.05,0,2.25.22,4.52.57,6.76,1.04,7.47,1.56,12.86,4.09,14.89,5.04l-.12.5.21-.45c19.97,9.38,29.99,14.09,38.31,14.45.65.03,1.26.04,1.84.04,3.53,0,5.98-.47,8.14-.88,1.66-.32,3.09-.59,4.67-.59s3.11.27,4.83.86c7.5,2.56,13.42,9.49,17.59,20.58.77.09,1.54.14,2.28.14,1.75,0,3.44-.25,5.02-.74,4.55-1.41,7.38-4.51,9.45-6.78,1.44-1.58,2.49-2.72,3.61-2.72.2,0,.39.04.57.11,2.44.94,1.92,7.23.95,10.34-.55,1.77-1.68,3.83-2.1,4.6l-.09.17c-1.67,3.08-3.18,4.53-4.51,5.81-.9.86-1.68,1.61-2.37,2.73-1.57,2.54-1.2,4.53-.46,8.49.6,3.24,1.42,7.69,1.51,14.57.03,2.19-.04,3.98-.14,6.68l-.05,1.3c-.33,9.07-.86,12.73-1.23,14.7-.4,2.18-.77,3.63-1.13,5.03-.45,1.78-.88,3.46-1.3,6.41-.34,2.34-.39,3.48-.48,5.77-.06,1.44-.14,3.42-.33,6.45-.41,6.48-.63,10.04-1.23,13.88-.59,3.87-1.14,5.75-1.68,7.57-.53,1.81-1.03,3.51-1.57,7.07-.51,3.4-.59,5.39-.66,7.14-.08,2.15-.15,3.84-.98,7.13-.42,1.66-1.67,6.58-4.95,11.23-1.71,2.43-6.93,9.83-15.81,10.88-.71.08-1.42.13-2.14.13-2.35,0-4.72-.45-7.05-1.33-.11-.04-.2-.12-.25-.21-1.99-3.38-4.17-6.56-6.48-9.44-.88-1.11-1.64-2-2.31-2.79-1.64-1.93-2.83-3.32-3.85-5.62-1.46-3.29-1.56-6.04-1.66-8.7l-.02-.58c-.43-11.7-.73-20.15-5.2-27.03-1.28-1.96-2.16-2.66-3.27-3.54-.47-.37-.95-.76-1.52-1.28-.04-.03-1.11-.99-2.78-3.04-2.07-2.54-5.88-10.2-9.17-19.92-.03-.08-.03-.18-.02-.26.01-.06.03-.13.04-.19-.94,2.61-2.23,5.84-3.99,9.22-1.31,2.51-2.54,4.48-5.73,9.15-4.24,6.2-8.77,12.52-13.46,18.8.15,2.56.54,5.11,1.18,7.59.58,2.26,1.16,3.74,1.89,5.61.41,1.04.85,2.18,1.36,3.61.06.17,1.35,3.95,2.6,9.45,2.4,10.49-.71,28.64-1.6,33.36.54.09.89.17,1.13.26l.49.07c.19.03.35.16.41.35,0,0,0,0,0,.01,1.02.27,2.01.53,3.02.81,3.15.87,4.75,1.4,6.45,1.95,1.6.52,3.26,1.07,6.37,1.95,7.89,2.25,12.51,3.11,15.89,3.73,2.34.43,4.19.78,6.19,1.4,1.27.4,2.17.77,3.41,1.29l.67.28c8.9,3.71,13.36,5.57,15.91,9.31,2.12,3.1,2.48,6.41,2.51,8.11.11,6.88-4.83,12.02-6.94,14.21-8.64,9-18.08,15.7-26.41,21.61-9.89,7.02-18.43,13.08-22.75,20.85l-.21.37c-.71,1.29-1.77,3.24-3.94,5.06-3.2,2.68-6.25,2.97-9.78,3.32-2.96.29-6.32.61-10.5,2.44-2.44,1.07-3.74,2.02-4.88,2.86-1.4,1.03-2.6,1.91-5.3,2.46-1.02.21-1.93.3-2.86.3-1.65,0-3.36-.31-5.93-.77-1.15-.21-2.49-.45-4.09-.71-5.42-.88-8.88-1.2-11.17-1.41-3.07-.28-4.22-.38-5.08-1.53-3.54-4.75,6.29-17.3,15.15-26.99.02-.03.05-.05.08-.07,3.97-2.76,7.46-4.15,10.38-4.15.98,0,1.91.16,2.78.47,1.85.67,3.25,1.95,4.74,3.32,2.01,1.85,4.09,3.76,7.44,4.1.38.04.74.05,1.06.05.3,0,.56-.01.78-.03,2.72-5.6,7.86-13.52,16.97-19.92,4.71-3.31,9.51-5.51,13.91-6.96-3.69.64-7.33,1.43-10.88,2.37-.21.06-21.66,5.72-38.95,8.82-.76.14-2.34.42-4.24.42-2.31,0-4.44-.42-6.33-1.24-1.29-.56-2.51-1.09-3.77-2.25-.95-.87-2.83-2.94-3.95-4.18-.43-.48-.74-.82-.82-.89h0c-.08-.08-.15-.15-.22-.22-.06-.04-.12-.08-.16-.14,0,0-.07-.11-.08-.12-.26-.3-.49-.65-.7-1.04l-24.14-34.94,17.46,38.51c.09.19.04.42-.11.57-11.98,11.26-25.1,19.24-39,23.72-20.04,6.46-48.11,8.19-64.88,9.21-4.95.3-8.87.54-10.96.82l-.85.11c-2.65.36-5.94.8-10.51,1-1.43.06-2.84.09-4.44.09-.96,0-1.88,0-2.78-.02-.86,0-1.71-.02-2.57-.02-4.31,0-8.52.27-15.02,1.59-5.94,1.21-9.6,2.54-20.46,6.52-1.77.65-3.73,1.36-5.92,2.16-2.71.99-6.07,2.21-9.96,3.59-.05.02-.11.03-.17.03-.11,0-.22-.04-.31-.1-.13-.1-.21-.27-.19-.44.62-7.09.92-14.29.91-21.41-.02-8.79-.53-17.67-1.51-26.45-3.86,45.57-14.22,79.14-22.32,88.01-3.92,4.29-7.77,7.6-8.2,7.97-3.78,3.2-6.57,4.99-10.43,7.46-1.8,1.16-3.85,2.47-6.3,4.13-.54.36-1.97,1.33-4.01,2.43-.61.33-1.25.66-1.97,1-1.04.49-1.91.85-2.75,1.19-2.02.82-3.77,1.53-6.92,3.89-6.93,5.18-11.81,11.74-16.11,17.53l-.26.36c-1.53,2.06-2.13,3.09-2.57,3.85-.41.71-.71,1.22-1.49,2.08-.92,1.02-1.93,1.69-2.67,2.17-.29.19-.63.42-.8.57.36.46,0,1.08-1.58,2.69-3.23,5.78-5.85,10.46-8.66,15.47-1.96,3.49-6.55,11.68-9.66,20.05-.19.51-.34.95-.48,1.35-.49,1.41-1.53,5.25-3.6,12.91l-.32,1.17c-3.05,11.26-3.7,14.44-3.87,16.63,0,.12-.03.64-.06,1.32-.09,2.41-.13,4.8-.09,7.12,0,.02.01.8.03,1.54.08,2.81.42,5.53.76,8.16.37,2.94.73,5.72.61,8.1-.1,2.06-.52,2.81-1.27,4.18-.69,1.25-1.74,3.15-3.19,7.33-2.27,6.53-3.46,12.65-4.42,17.56l-.06.32c-.85,4.4-.98,7.64-1.06,9.78-.02.66-.05,1.22-.08,1.7-.45,5.8-4.06,10.18-6.97,13.7-2.27,2.75-4.95,5.16-7.97,7.15-.08.05-.18.08-.28.08-.04,0-.07,0-.11-.01-.13-.03-.25-.11-.32-.23l-15.95-25.94c-.03.97-.02,1.88,0,2.77.03,1.7.06,3.46-.26,5.54-.99,6.48-5.12,12.71-12.27,18.53-.09.07-.2.11-.32.11-.03,0-.06,0-.09,0Zm39.8-111.15c-2.08,2.87-4.29,6.1-5.84,8.98-1.37,2.56-2.36,4.8-3.12,7.04-.61,1.83-.94,3.25-1.06,3.78-.98,4.28-3.08,9.13-4.76,13.03-.72,1.68-1.41,3.27-1.89,4.53-2.45,6.5-1.8,10.67-1.18,14.71.66,4.23,1.28,8.23-1.66,14.33-1.06,2.2-2.11,3.68-3.04,4.98-1.36,1.91-2.54,3.56-3.44,6.96l8.74-12.43c.04-.06.09-.1.15-.14.71-.44,1.31-.68,1.89-.91.65-.26,1.32-.54,2.23-1.11.83-.53,1.61-1.15,2.32-1.85-.2-.17-.46-.38-.8-.66-.76-.34-1.38-.81-1.85-1.4-1.62-2.03-1.08-4.95,2.87-15.61.44-1.2.81-2.16,1.13-3,.82-2.17,1.32-3.48,2.02-5.77.2-.65.37-1.22,1.73-6.21,1.49-5.49,2.22-8.15,2.33-8.76.65-3.48.62-7.19-.08-11.03-.01-.07-.01-.13,0-.2.33-1.45.68-2.7,1.1-3.95,0-.03.84-2.5,2.2-5.3Z"/>
  <path class="horse outer" d="m645.12,210.24c1.49.15,3.86.44,6.7,1.03,7.52,1.57,12.86,4.1,14.87,5.04,20.06,9.42,30.09,14.13,38.51,14.5.65.03,1.27.04,1.87.04,6.28,0,9.25-1.47,12.82-1.47,1.39,0,2.87.22,4.67.84,9.45,3.23,14.56,12.95,17.39,20.57.76.1,1.65.18,2.64.18,1.54,0,3.31-.19,5.17-.76,7.69-2.39,10.62-9.48,12.91-9.48.13,0,.26.02.39.07,1.88.72,1.73,6.25.65,9.73-.58,1.87-1.82,4.06-2.16,4.68-2.77,5.1-5.09,5.63-6.87,8.51-3.03,4.9.77,8.11.97,23.33.03,2.5-.06,4.42-.18,7.96-.35,9.6-.93,13.05-1.23,14.63-.93,5.01-1.7,6.21-2.44,11.47-.57,3.89-.33,4.58-.82,12.26-.42,6.72-.64,10.09-1.23,13.83-1.16,7.6-2.15,7.39-3.25,14.64-1.15,7.62-.14,8.34-1.63,14.23-.38,1.52-1.61,6.45-4.87,11.07-1.75,2.48-6.8,9.64-15.46,10.67-.72.09-1.41.12-2.08.12-2.94,0-5.36-.73-6.87-1.3-2.48-4.23-4.84-7.4-6.52-9.5-3.05-3.83-4.7-5.16-6.1-8.3-1.52-3.44-1.52-6.27-1.63-9.1-.42-11.62-.75-20.3-5.28-27.28-1.87-2.86-2.97-3.18-4.87-4.92,0,0-1.07-.94-2.73-2.99-1.84-2.26-5.6-9.49-9.08-19.77,1.16-5.48,1.31-6.7,1.22-6.72,0,0,0,0,0,0-.33,0-1.81,7.16-6.1,15.42-1.29,2.49-2.49,4.41-5.7,9.1-3.28,4.79-7.81,11.25-13.56,18.93.1,1.85.37,4.61,1.21,7.87.92,3.58,1.86,5.31,3.26,9.27,0,0,1.3,3.77,2.59,9.4,2.52,11.04-1.14,30.79-1.7,33.66-.36-.06-.77-.12-1.22-.18.39.09.8.2,1.2.3.6.15,1.19.29,1.8.45.02-.02.03-.04.03-.06,0-.06-.08-.12-.22-.17.18.02.36.05.55.07l-.21.2s.06.01.09.02c1.14.29,2.3.6,3.5.94,6.1,1.69,6.39,2.07,12.82,3.91,13.31,3.79,17.19,3.61,22.07,5.13,1.47.46,2.45.9,4.04,1.56,8.81,3.67,13.22,5.51,15.69,9.13,2.08,3.04,2.39,6.27,2.42,7.84.1,6.43-4.36,11.32-6.8,13.86-18.82,19.59-41.18,28.07-49.24,42.56-.73,1.31-1.72,3.36-4.03,5.29-5.74,4.8-10.96,1.66-20.16,5.68-5.56,2.43-5.38,4.33-10.08,5.29-1,.2-1.87.3-2.76.3-2.33,0-4.78-.63-9.94-1.47-12.59-2.06-14.66-1.04-15.93-2.74-3.69-4.95,9.06-19.73,15.12-26.35,4.46-3.1,7.71-4.06,10.09-4.06,1.02,0,1.88.18,2.61.44,4.26,1.53,6.33,6.83,12.3,7.44.4.04.77.06,1.11.06.45,0,.83-.03,1.11-.06,2.08-4.34,6.96-12.98,16.93-19.98,9.03-6.34,18.24-8.54,24.5-9.3,1.84-.17,3.76-.3,5.74-.4-1.35.02-3.33.1-5.74.4-9.16.82-16.52,2.4-21.88,3.82,0,0-21.44,5.68-38.91,8.82-.88.16-2.37.41-4.15.41s-4-.27-6.13-1.2c-1.28-.55-2.43-1.06-3.63-2.15-1.33-1.22-4.57-4.9-4.77-5.07,0,0-.01,0-.03-.02-.08-.07-.17-.17-.26-.27l-.77-1.1c-9.11-13.19-18.22-26.38-27.34-39.58,6.59,14.53,13.17,29.06,19.76,43.59-15.07,14.16-29.06,20.46-38.81,23.61-26.13,8.43-66.76,8.82-75.75,10.02-2.85.38-6.28.89-11.32,1.11-1.61.07-3.06.09-4.42.09-1.89,0-3.61-.04-5.36-.04-4.05,0-8.26.21-15.12,1.6-6.94,1.41-10.69,2.96-26.46,8.7-2.71.99-6.07,2.2-9.95,3.59.58-6.65.92-13.82.91-21.45-.02-11.51-.87-22.05-2.12-31.44-3.57,48.93-14.71,84.05-22.58,92.66-4.14,4.53-8.16,7.93-8.16,7.93-5.54,4.68-9.09,6.42-16.68,11.56-.58.39-1.97,1.33-3.96,2.41-.6.33-1.24.65-1.95.99-3.59,1.7-5.27,1.78-9.75,5.13-7.13,5.33-12.02,11.98-16.48,17.98-2.98,4.01-2.48,4.18-4.03,5.88-1.74,1.92-3.82,2.55-3.65,3.17.03.12.12.16.16.2.15.18-.41.91-1.58,2.1.38-.68.77-1.38,1.17-2.1-5.65,5.26-11.3,10.52-16.96,15.77.54-.68.84-1.07.83-1.08,0,0,0,0,0,0-.04,0-1.13.93-3.56,3.63-.69.64-1.38,1.29-2.07,1.93.48-.4.95-.8,1.42-1.2-.26.29-.53.6-.82.93-7.14,8.18-8,11.01-15.87,21.57-2.51,3.37-7.4,9.64-10.18,14.82-1.47,2.74-2.44,5.01-3.15,7.12-.66,1.96-.99,3.46-1.09,3.92-1.37,5.96-5.02,13.21-6.61,17.41-5.06,13.41,2.85,17.22-2.82,28.99-2.58,5.35-4.98,6.16-6.53,12.1-.22.85-.39,1.63-.51,2.37-.26.37-.51.73-.77,1.1.17.28.34.56.51.84-.34,3.62.2,6.18-.36,9.85-.7,4.56-3.25,11.02-12.1,18.22-5.78-10.25-11.56-20.5-17.34-30.76.32-1.05,1.6-5.06,3.57-8.49,0,0,1.77-3.1,3.97-4.11.04-.02.06-.03.1-.04,3.1-1.37,5.1-.84,5.26-1.42.07-.26-.28-.5-1.6-1.54-.61-.48-2.15-1.71-2.44-1.97-2.21-2.01,1.18-9.24,1.18-9.24,2.61-5.55,4.41-11.46,7.43-16.8,6.99-12.39,10.49-18.58,13.02-25.8,2.1-5.99,3.44-11.81,4.34-15.71,1.3-5.67,1.78-8.89,2.03-11.47.35-3.68.53-5.56.41-8.31,0,0-.27-6.49.79-11.04.06-.27.17-.66.44-1.08.41-.66.97-1.07,1.43-1.31,1.95-1.33,4.68-3.33,7.65-6.08,3.93-3.59,6.25-6.58,11.94-14.23,7.25-9.74,10.77-14.68,11.39-15.82,2.47-4.52,5.65-11.75,7.01-21.86-6.1-6.97-13.72-17.74-18.14-32.32-6.13-20.19-2.71-36.43-.25-40.35.21-.33,1.56-2.42,3.08-5.28.95-1.78,1.71-3.41,2.76-5.65.17-.36.41-.87.67-1.56,1.21-3.13,1.54-5.97,1.62-7.91v-1.05c-3.19,2.18-7.69,5.74-11.8,11.07-10.97,14.22-9.74,28.85-12.52,48.17-1.82,12.64-4.02,28.01-12.69,45.06-14.47,28.46-38.34,44.68-43.65,48.15-.4.26-.84.55-1.36.88-.35.22-.83.52-1.39.86-17.88,11.01-36.24,18.81-39.27,18.81-.22,0-.36-.04-.41-.13-.36-.64,4.41-3.15,12.7-9.4,17.31-13.06,26.51-24.76,26.01-25.27-.01-.01-.03-.02-.05-.02-1.12,0-15.95,17.79-36.64,17.84-.04,0-.08,0-.11,0-.04,0-.07,0-.09,0,3.24-1.91,8.12-5.25,12.7-10.58,4.39-5.1,7.16-11.44,9.07-20.77,4.26-20.82-2.45-28.35-.2-47.21,1.43-11.99,5.51-20.45,8.98-27.65,20.2-41.89,63.54-58.62,73.63-62.47,11.74-4.47,21.87-6.72,28.48-7.91,4.59-3.51,10.78-8.06,18.32-13.04,7.82-5.18,12.54-8.3,19.53-11.86,2.04-1.04,2.58-1.25,23.6-10.29,10.1-4.34,10.59-4.55,12.21-5.13,10.7-3.91,12.82-3.11,20.75-6.34,6.94-2.81,11.28-5.69,15.87-8.7,17.09-11.16,19.35-9.71,44.35-24.5,14.53-8.61,25.11-15.8,34.99-22.55,4.26-2.9,7.43-5.11,10.23-7.11-.34.1-.85.24-1.48.4-4.39,1.11-8.76,1.54-12.84,1.54-12.27,0-21.93-3.92-21.74-5.25.04-.28.5-.38,1.32-.38,2.03,0,6.29.59,12.09.59s13.28-.6,21.58-3.02c17.56-5.12,28.31-15.28,27.87-16.01-.02-.03-.05-.04-.11-.04-1.14,0-10.32,6.44-23.01,6.44-.76,0-1.52-.02-2.31-.07-6.41-.4-12.6-2.46-12.5-3.78.11-1.61,9.41.64,20.83-3.93,9.8-3.93,12.55-9.43,22.74-10.54,3.63-.39,7.14-.11,7.17-.53.05-.59-6.78-1.05-14.81-3.33-7.9-2.25-17.09-6.29-16.68-7.88.1-.39.75-.53,1.88-.53,3.37,0,10.98,1.3,20.75,1.3,6.42,0,13.77-.56,21.47-2.41,3.24-.78,12.01-3.1,11.85-3.96-.05-.25-.84-.31-1.83-.31s-2.09.06-2.92.09c-.37.01-.75.02-1.12.02-12.64,0-24.94-6.18-24.6-7.67.06-.25.47-.34,1.28-.34,1.87,0,5.87.47,12.49.47,1.88,0,3.96-.04,6.27-.14,9.53-.41,9.42-1.26,12.92-1.26.47,0,1.01.02,1.65.05.77.04,1.69.11,2.68.11,1.81,0,3.83-.23,5.55-1.3.43-.27,1.95-1.29,3.66-2.56,2.83-2.11,3.1-2.58,4.27-3.37,2.26-1.5,4.4-1.83,8.14-2.37,1.87-.27,3.15-.33,4.17-.33.95,0,1.68.06,2.45.06.82,0,1.69-.06,2.95-.32.67-.14,1.2-.28,1.68-.45,2.59-.91,7.06-3.31,7.06-3.31,4.82-2.67,6.19-3.29,6.04-3.84-.13-.47-1.28-.53-1.81-.59-3.75-.38-6.27-3.27-10.28-7.35-7.76-7.88-10.74-9.64-10.28-10.28.1-.14.34-.2.69-.2,2.17,0,8.7,2.51,13.52,6.08,1.06.79,2.62,2.05,5.14,2.94,1.88.66,3.56.85,6.35,1.18,1.77.2,2.99.34,3.71.34.44,0,.69-.05.75-.18.46-1.03-7.52-3.6-13.82-10.23-6.1-6.41-8.65-14.52-7.57-15.21.05-.03.1-.04.15-.04.9,0,3.1,3.64,8.92,7.68,6.15,4.27,12.15,6.1,17.24,7.64,2.5.76,6.36,1.8,7.56,1.8.21,0,.34-.03.36-.1.14-.37-2.62-1.65-3.66-2.17-10.58-5.28-18.71-19.15-16.96-20.83.14-.14.36-.2.63-.2,2.09,0,7.65,3.64,11.16,5.93,3.47,2.27,2.78,2.25,5.75,4.11,0,0,7.41,4.64,15.3,6.16,2.28.44,4.09.47,4.47.48.2,0,.39,0,.58,0,1.36,0,2.32-.1,3.08-.24,1.46-.26,2.45-.52,3.03-.67,1.11-.3,2.62-.56,4.63-.56.73,0,1.52.03,2.38.12-9.21-7.64-18.41-15.28-27.62-22.92m15.47,201.45c.75.12,1.31.22,1.59.34-.13-.02-.68-.09-.81-.11s-.68-.09-.81-.11c0-.04.01-.08.02-.12m-53.15,49.31c.22.32.43.64.65.97-.21-.24-.44-.56-.65-.97m.65.97s.08.09.12.13l-.02.02s-.06-.1-.1-.15m-285.3,148.84c-3.25,5.81-5.87,10.5-8.69,15.53-2.29,4.08-6.67,11.98-9.69,20.12-.19.51-.35.96-.49,1.36-.52,1.5-1.65,5.69-3.93,14.11-3,11.07-3.7,14.42-3.88,16.72,0,.12-.03.65-.06,1.34-.12,3.09-.12,5.59-.09,7.15,0,0,.01.8.03,1.55.16,6.04,1.59,11.83,1.36,16.21-.19,3.81-1.44,2.74-4.44,11.36-2.28,6.57-3.47,12.66-4.43,17.63-.02.13-.04.21-.06.32-1.12,5.77-.99,9.5-1.15,11.53-.44,5.64-3.98,9.94-6.85,13.42-2.8,3.4-5.75,5.65-7.86,7.05-5.59-9.09-11.18-18.19-16.78-27.28.06-.61.14-1.25.26-1.93,3.39-4.82,6.78-9.64,10.16-14.46h0c1.46-.89,2.37-.92,4.12-2.03,1.28-.81,2.19-1.68,2.75-2.27.22.17.34.25.35.25,0,0,0,0,0,0,.01-.01-.51-.46-1.58-1.34-.44-.19-1.16-.57-1.72-1.28-1.42-1.78-.99-4.49,2.95-15.12,1.62-4.36,2.18-5.62,3.15-8.8.2-.65.37-1.23,1.73-6.23,1.48-5.44,2.22-8.17,2.34-8.8.48-2.59.8-6.36-.08-11.21.3-1.3.64-2.57,1.09-3.91,0,0,1.21-3.64,3.15-7.13,3.39-6.11,16.72-22.84,21.59-28.98,8.05-6.84,14.04-12.12,16.75-14.89m-15.78,13.68c-.27.34-.59.75-.96,1.22-.79.67-1.6,1.36-2.43,2.06.23-.26.45-.5.66-.73.91-.85,1.82-1.7,2.73-2.54m338.1-415.24c-.4,0-.77.24-.92.61-.17.41-.05.87.28,1.16l11.83,9.82,13.52,11.22c-1.56.04-3.03.23-4.36.59-.66.18-1.6.41-2.95.65-.85.15-1.77.22-2.91.22-.18,0-.37,0-.56,0-1.37-.03-2.9-.19-4.3-.46-7.61-1.47-14.88-5.98-14.95-6.02-1.44-.9-1.97-1.33-2.59-1.83-.64-.52-1.36-1.11-3.14-2.27-4.91-3.21-9.5-6.09-11.71-6.09-.55,0-1,.16-1.33.48-.47.45-.64,1.16-.49,2.1.64,4.16,7.64,14.56,16.27,19.57-.71-.2-1.42-.4-2.09-.61-5.13-1.56-10.94-3.32-16.96-7.5-3.37-2.34-5.48-4.53-6.87-5.97-1.22-1.26-1.83-1.89-2.62-1.89-.25,0-.49.07-.69.2-.26.17-.6.51-.68,1.22-.31,2.55,2.67,9.87,8.06,15.52,3.91,4.11,8.51,6.73,11.26,8.3.15.08.29.17.44.25-.45-.05-.94-.11-1.49-.17-2.72-.31-4.36-.5-6.14-1.13-2.15-.76-3.55-1.81-4.58-2.57l-.3-.22c-4.77-3.54-11.51-6.28-14.12-6.28-.7,0-1.21.21-1.5.62-.76,1.07.13,1.88,2.51,4.04,1.69,1.53,4.25,3.85,7.87,7.53.34.35.67.68.99,1.01,3.55,3.63,6.11,6.25,9.9,6.63h0c-.61.36-1.45.82-2.39,1.33-.64.35-1.38.76-2.23,1.23-.03.02-4.42,2.36-6.91,3.24-.45.16-.92.28-1.54.41-1.29.27-2.11.3-2.75.3-.36,0-.7-.01-1.06-.03-.43-.02-.88-.03-1.39-.03-1.31,0-2.68.11-4.31.34-3.64.52-6.04.86-8.55,2.52-.59.4-.98.73-1.47,1.14-.56.48-1.34,1.14-2.85,2.26-1.65,1.23-3.15,2.25-3.59,2.52-1.26.78-2.86,1.15-5.02,1.15-.76,0-1.49-.04-2.13-.08l-.5-.03c-.64-.03-1.2-.05-1.71-.05-1.53,0-2.43.16-3.58.36-1.62.28-3.83.67-9.39.9-2.11.09-4.21.14-6.23.14-4.28,0-7.4-.2-9.68-.34-1.19-.07-2.12-.13-2.81-.13-.65,0-1.99,0-2.25,1.11-.1.44.03.89.38,1.34,1.83,2.31,13.26,7.56,25.19,7.56.38,0,.77,0,1.15-.02.23,0,.49-.02.76-.03-2.27.72-5.37,1.58-8.12,2.24-6.67,1.6-13.62,2.38-21.24,2.38-6.11,0-11.41-.52-15.28-.89-2.33-.23-4.18-.41-5.47-.41-.82,0-2.52,0-2.85,1.29-.26,1.02.26,2.3,5.77,4.85,3.34,1.54,7.68,3.12,11.6,4.24,2.94.84,5.74,1.43,8.08,1.88-.09,0-.18.02-.27.03-6.34.69-9.99,3.07-13.86,5.6-2.61,1.7-5.31,3.47-9.14,5-6.88,2.76-13.04,2.98-16.71,3.11-2.89.1-4.63.17-4.74,1.68-.02.29.04.74.45,1.21,1.42,1.62,7.37,3.29,12.98,3.64.78.05,1.58.07,2.37.07,8.04,0,14.61-2.48,18.81-4.41-4.34,3.45-12.65,8.8-23.85,12.07-6.88,2.01-13.84,2.98-21.3,2.98-3.61,0-6.65-.23-8.86-.4-1.36-.1-2.44-.19-3.23-.19-.64,0-2.14,0-2.31,1.23-.04.29,0,.73.41,1.21,1.83,2.11,11.44,5.18,22.32,5.18,3.29,0,6.5-.28,9.59-.82-1.83,1.28-3.83,2.65-6.06,4.17-9.43,6.44-20.11,13.73-34.93,22.51-12.13,7.18-18.76,10.46-24.6,13.35-6.12,3.03-10.96,5.42-19.78,11.18l-.32.21c-4.47,2.93-8.68,5.69-15.37,8.4-3.89,1.58-6.34,2.17-9.17,2.86-2.87.7-6.13,1.48-11.55,3.46-1.57.56-2.11.79-11.04,4.63l-1.21.52-5.21,2.24c-15.94,6.85-16.56,7.12-18.44,8.08-6.97,3.55-11.64,6.63-19.38,11.75l-.25.17c-6.15,4.06-12.26,8.41-18.18,12.93-9.71,1.76-19.27,4.43-28.42,7.91-4.53,1.73-18.33,6.99-33.23,17.08-18.54,12.55-32.32,27.99-40.95,45.89-3.57,7.41-7.62,15.81-9.07,27.96-1.03,8.63-.2,14.98.6,21.11.99,7.59,1.92,14.75-.38,26.02-1.86,9.09-4.59,15.36-8.85,20.31-3.5,4.07-7.69,7.56-12.45,10.37-.39.23-.57.69-.46,1.12.12.43.51.74.96.74h.1s.1,0,.1,0c12.77-.03,23.3-6.62,29.91-11.84-4.25,4.5-10.83,10.71-19.82,17.48-3.75,2.83-6.74,4.86-8.93,6.35-3.7,2.52-4.69,3.19-4.04,4.34.16.29.52.64,1.29.64,3.54,0,22.23-8.14,39.8-18.96.57-.35,1.04-.65,1.4-.87.53-.34.98-.63,1.38-.89,8.7-5.68,30.39-21.79,43.99-48.53,8.74-17.19,10.99-32.82,12.79-45.37.62-4.34,1.04-8.4,1.45-12.34,1.41-13.72,2.53-24.55,10.87-35.37,2.79-3.61,6.13-6.87,9.95-9.7-.18,2.29-.68,4.52-1.5,6.62-.26.68-.49,1.17-.64,1.49-1.05,2.23-1.8,3.84-2.74,5.6-.91,1.72-1.91,3.43-2.97,5.09l-.08.13c-2.9,4.62-5.84,21.45.15,41.17,3.57,11.77,9.64,22.65,18.05,32.35-1.09,7.65-3.39,14.74-6.84,21.07-.37.68-2.33,3.61-11.31,15.7-5.66,7.61-7.98,10.59-11.81,14.09-2.33,2.16-4.78,4.11-7.5,5.96-.52.29-1.23.8-1.76,1.64-.35.56-.49,1.06-.57,1.39-1.07,4.62-.82,11.03-.81,11.3.12,2.6-.05,4.35-.37,7.84l-.03.33c-.21,2.19-.6,5.24-2.01,11.33-.89,3.85-2.22,9.67-4.31,15.61-2.5,7.14-5.99,13.32-12.94,25.63-1.85,3.29-3.27,6.8-4.63,10.2-.89,2.21-1.81,4.5-2.83,6.67-.62,1.32-3.58,8.02-.95,10.4.38.34,2.47,2,2.49,2.01l.27.22c-.93.13-2.21.38-3.72,1.05l-.11.05c-1.98.9-3.86,3.38-4.4,4.53h-.02c-1.9,3.29-3.19,7.16-3.66,8.68-.08.26-.05.55.08.79l17.34,30.76c.14.26.4.44.69.49.06.01.12.02.19.02.23,0,.45-.08.63-.22,7.25-5.9,11.44-12.24,12.45-18.84.33-2.12.3-3.9.27-5.63,0-.34-.01-.68-.01-1.03l5.17,8.41,9.87,16.05c.14.23.37.39.64.45.07.02.14.02.22.02.19,0,.39-.06.55-.17,3.06-2.02,5.78-4.46,8.08-7.25,2.95-3.57,6.62-8.02,7.08-13.98.04-.49.06-1.06.08-1.72.08-2.13.2-5.34,1.05-9.7l.04-.18.03-.13c.95-4.9,2.14-10.99,4.4-17.5,1.44-4.14,2.47-6.01,3.16-7.25.76-1.38,1.22-2.22,1.33-4.39.12-2.42-.23-5.22-.61-8.19-.33-2.62-.68-5.32-.75-8.1-.02-.74-.03-1.52-.03-1.54-.03-2.31,0-4.7.09-7.09.03-.67.05-1.18.06-1.3.17-2.16.81-5.31,3.85-16.54l.32-1.17c2.07-7.64,3.11-11.48,3.59-12.87.14-.4.29-.83.48-1.34,3.1-8.34,7.68-16.5,9.63-19.98,2.8-5,5.41-9.66,8.63-15.42,1.18-1.21,1.94-2.08,1.79-2.84.14-.1.31-.21.46-.31.76-.5,1.8-1.19,2.76-2.25.81-.9,1.12-1.43,1.55-2.16.43-.74,1.03-1.76,2.54-3.8l.26-.35c4.28-5.76,9.14-12.29,16.01-17.43,3.1-2.32,4.82-3.02,6.81-3.82.85-.34,1.72-.7,2.77-1.2.71-.34,1.36-.67,1.99-1.01,2.07-1.12,3.51-2.09,4.05-2.46,2.45-1.66,4.49-2.97,6.29-4.12,3.73-2.4,6.68-4.29,10.47-7.5.17-.14,4.16-3.53,8.26-8.02,7.84-8.58,17.78-40.08,21.97-83.12.64,7.07.97,14.18.98,21.23.01,7.1-.29,14.29-.9,21.36-.03.34.12.67.39.88.18.14.39.21.61.21.11,0,.23-.02.34-.06,3.88-1.39,7.25-2.61,9.96-3.6,2.19-.8,4.15-1.51,5.91-2.16,10.85-3.97,14.5-5.31,20.4-6.5,6.46-1.31,10.64-1.58,14.92-1.58.85,0,1.7,0,2.57.02.91,0,1.83.02,2.79.02,1.61,0,3.03-.03,4.46-.09,4.58-.2,7.89-.64,10.54-1l.87-.12c2.08-.28,5.99-.52,10.93-.82,16.79-1.03,44.9-2.75,65-9.24,13.97-4.5,27.15-12.52,39.19-23.83.31-.29.4-.75.23-1.14l-9.88-21.79-5.28-11.64,7.77,11.25,13.2,19.11c.21.39.45.74.71,1.05l.06.1c.07.11.16.2.27.27.06.06.11.11.16.16,0,0,.03.03.04.04,0,0,0,0,0,0,.06.06.36.39.77.85,1.13,1.24,3.01,3.32,3.98,4.21,1.32,1.21,2.58,1.76,3.91,2.34,1.95.85,4.15,1.28,6.53,1.28,1.95,0,3.56-.29,4.33-.43,17.31-3.11,38.77-8.78,38.99-8.83,1.76-.46,3.53-.89,5.33-1.29-2.88,1.29-5.85,2.93-8.78,4.99-9.06,6.36-14.23,14.21-17.01,19.85-.15,0-.31.01-.46.01-.34,0-.67-.02-1-.05-3.19-.33-5.11-2.1-7.16-3.97-1.46-1.34-2.96-2.72-4.9-3.42-.92-.33-1.91-.5-2.95-.5-3.02,0-6.61,1.43-10.66,4.24-.06.04-.12.09-.17.15-13.08,14.29-18.19,23.59-15.18,27.62.99,1.33,2.29,1.45,5.44,1.73,2.28.21,5.73.52,11.13,1.4,1.59.26,2.93.5,4.08.71,2.6.47,4.32.78,6.02.78.97,0,1.91-.1,2.96-.32,2.81-.57,4.05-1.49,5.5-2.55,1.12-.82,2.39-1.76,4.78-2.8,4.11-1.79,7.42-2.12,10.35-2.4,3.61-.35,6.73-.65,10.06-3.43,2.24-1.88,3.34-3.88,4.06-5.2l.2-.37c4.27-7.66,12.76-13.7,22.6-20.68,8.35-5.93,17.81-12.64,26.48-21.67,2.15-2.24,7.19-7.49,7.08-14.57-.03-1.75-.4-5.17-2.59-8.38-2.64-3.87-7.15-5.74-16.13-9.49l-.68-.28c-1.2-.51-2.15-.9-3.45-1.31-2.04-.63-3.9-.98-6.25-1.42-3.36-.62-7.97-1.48-15.84-3.72-3.1-.88-4.75-1.42-6.35-1.95-1.7-.56-3.31-1.08-6.47-1.96-.96-.26-1.89-.52-2.81-.76-.16-.23-.41-.39-.69-.42l-.44-.06c-.17-.06-.39-.11-.66-.17.99-5.4,3.84-22.82,1.5-33.07-1.27-5.57-2.56-9.34-2.62-9.5-.51-1.45-.97-2.61-1.37-3.64-.73-1.86-1.3-3.32-1.87-5.55-.61-2.39-1-4.85-1.16-7.31,4.66-6.23,9.15-12.51,13.37-18.67,3.21-4.69,4.45-6.67,5.77-9.2,1.43-2.76,2.56-5.41,3.44-7.71,3.22,9.24,6.85,16.47,8.87,18.95,1.63,2.01,2.72,3,2.84,3.1.57.52,1.08.93,1.54,1.29,1.08.86,1.93,1.53,3.16,3.43,4.39,6.76,4.69,15.16,5.12,26.77l.02.58c.1,2.71.2,5.51,1.7,8.89,1.05,2.37,2.26,3.78,3.93,5.74.67.79,1.43,1.68,2.3,2.78,2.3,2.86,4.47,6.02,6.44,9.38.12.2.29.35.51.43,2.39.9,4.82,1.36,7.23,1.36.73,0,1.47-.04,2.2-.13,9.1-1.08,14.41-8.61,16.16-11.09,3.34-4.73,4.6-9.72,5.01-11.36.86-3.38.92-5.1,1.01-7.27.07-1.74.15-3.71.65-7.09.53-3.52,1.03-5.21,1.56-7,.54-1.83,1.1-3.73,1.69-7.64.6-3.86.83-7.43,1.24-13.92.19-3.04.27-5.02.33-6.47.09-2.27.14-3.4.48-5.71.41-2.93.84-4.59,1.29-6.36.36-1.41.73-2.87,1.14-5.07.38-1.98.91-5.67,1.24-14.77l.05-1.32c.1-2.7.17-4.49.14-6.69-.09-6.92-.92-11.39-1.52-14.65-.71-3.84-1.07-5.77.4-8.14.66-1.07,1.42-1.79,2.29-2.63,1.36-1.3,2.9-2.78,4.61-5.93l.09-.17c.43-.79,1.57-2.87,2.14-4.69.98-3.16,1.66-9.84-1.25-10.96-.24-.09-.5-.14-.75-.14-1.34,0-2.45,1.21-3.98,2.89-2.03,2.22-4.81,5.27-9.23,6.64-1.54.48-3.18.72-4.88.72-.63,0-1.27-.03-1.92-.1-4.22-11.07-10.2-18-17.79-20.59-1.78-.61-3.37-.89-4.99-.89s-3.08.28-4.77.6c-2.14.41-4.56.87-8.05.87-.59,0-1.2-.01-1.82-.04-8.22-.36-18.21-5.05-38.12-14.4l-.09-.04c-2.04-.96-7.47-3.51-15-5.08-2.25-.47-4.54-.82-6.81-1.04-.03,0-.07,0-.1,0h0Zm-386.28,522.04c.62-1.24,1.31-2.22,2.07-3.27.94-1.32,2-2.81,3.08-5.05,3.01-6.24,2.34-10.5,1.71-14.62-.62-3.97-1.25-8.08,1.15-14.46.47-1.26,1.16-2.84,1.88-4.51,1.69-3.92,3.79-8.79,4.77-13.03l.02-.09c.12-.53.44-1.93,1.05-3.73.74-2.21,1.72-4.43,3.08-6.97.85-1.59,1.92-3.3,3.05-5-.14.39-.25.71-.31.93h-.02c-.43,1.26-.78,2.53-1.12,4-.03.13-.03.27,0,.4.69,3.78.71,7.43.08,10.85-.11.61-.99,3.83-2.32,8.72-1.36,4.99-1.52,5.56-1.72,6.2-.7,2.27-1.19,3.58-2.01,5.75-.32.83-.68,1.8-1.13,3-4.03,10.88-4.56,13.89-2.79,16.1.51.63,1.17,1.14,1.97,1.51.11.09.22.18.31.26-.57.52-1.19.99-1.83,1.4-.86.55-1.49.8-2.15,1.07-.6.24-1.21.49-1.96.95-.12.07-.22.17-.3.28l-6.41,9.12-.14.2h0Z"/>
</g>
</svg>
