<svg width="26" height="18" viewBox="0 0 26 18" fill="none" xmlns="http://www.w3.org/2000/svg">
<path d="M17 15.2222C17 15.6937 16.8314 16.1459 16.5314 16.4793C16.2313 16.8127 15.8243 17 15.4 17H2.6C2.17565 17 1.76869 16.8127 1.46863 16.4793C1.16857 16.1459 1 15.6937 1 15.2222V2.77778C1 2.30628 1.16857 1.8541 1.46863 1.5207C1.76869 1.1873 2.17565 1 2.6 1H6.6L8.2 3.66667H15.4C15.8243 3.66667 16.2313 3.85397 16.5314 4.18737C16.8314 4.52076 17 4.97295 17 5.44444V7.66667" stroke="black" stroke-width="2" stroke-linecap="round" stroke-linejoin="round"/>
<path d="M20 16L25 11L20 6" stroke="black" stroke-width="2" stroke-linecap="round" stroke-linejoin="round"/>
<path d="M25 11H13" stroke="black" stroke-width="2" stroke-linecap="round" stroke-linejoin="round"/>
</svg>
