<?xml version="1.0" encoding="UTF-8"?>
<svg id="Layer_2" data-name="Layer 2" xmlns="http://www.w3.org/2000/svg" width="128" height="128" viewBox="0 0 128 128">
  <defs>
    <style>
      .cls-2 {
        stroke: #27c1aa;
        stroke-width: 8px;
      }

      .cls-2, .cls-1 {
        fill: none;
        stroke-linecap: round;
      }

      .cls-1 {
        stroke: #000;
        stroke-width: 8px;
      }
    </style>
  </defs>
  
  <path d="M28.2578 40.95L41.1078 51.66C52.0378 60.7699 57.5078 65.3299 63.9778 65.3299C70.4478 65.3299 75.9078 60.7699 86.8478 51.66L99.6978 40.95" class="cls-1" />
  <path d="M123.95 73V30.89C123.23 24.99 121.05 21.62 119.31 19.68C114.62 14.44 107.27 13.06 62.84 13C60.91 13 59.99 13 59.36 13H59.35C17.48 13.1 11.81 16.19 8.64 19.68C6.92 21.57 4.71 24.92 4 30.89V103.13C4 109.24 8.95 114.19 15.06 114.19H83" class="cls-2" />
  <path d="M100 91.3403C100.742 89.219 102.18 87.4357 104.061 86.3021C105.943 85.1685 108.149 84.7568 110.293 85.139C112.438 85.5211 114.384 86.6728 115.793 88.3927C117.202 90.1125 117.983 92.2912 118 94.5478C118 100.963 108.722 104.17 108.722 104.17M108.969 117H109" class="cls-1" />
</svg>

