<?xml version="1.0" encoding="UTF-8"?><svg id="Layer_2" xmlns="http://www.w3.org/2000/svg" viewBox="0 0 128 128"><defs><style>.cls-1{stroke:#27c1aa;stroke-width:8px;}.cls-1,.cls-2{fill:none;stroke-linecap:round;}.cls-2{stroke:#000;stroke-width:8.18px;}.cls-3{fill:#fff;opacity:0;stroke-width:0px;}</style></defs><rect class="cls-3" x="0" y="1.74" width="128" height="128"/><path class="cls-1" d="m52.91,106.89c5.89,3.39,12.04,6.17,18.48,8.28,13.44,4.41,27.23,5.88,41.31,4.83,1.07-.08,2.16-.26,3.16-.62,4.87-1.76,7.69-5.89,7.78-11.23.12-6.85.28-13.7.37-20.55.02-1.14-.07-2.33-.39-3.42-.82-2.89-2.76-4.66-3.45-5.29-2.25-2.07-5.15-2.85-19.03-4.36-6.7-.73-9.67-.94-13.43.3-2.83.94-4.99,2.31-5.23,2.51-3.31,2.71-6.71,5.32-9.97,8.09-1.41,1.2-2.54,1.44-4.28.47-4.52-2.53-8.97-5.1-13.02-8.38-3.47-2.81-6.58-5.97-9.22-9.52-2.34-3.16-4.32-6.58-6.43-9.91-.17-.27-.2-.84-.03-1.09,2.62-3.8,5.21-7.62,7.97-11.31,1.73-2.31,2.34-4.09,2.59-5.33.04-.18.12-.67.17-1.33.26-3.77-.98-11.91-1.32-14.09-.39-6.67-1.5-11.76-2.6-14.32-.37-.86-1.06-2.43-2.59-3.92-2.25-2.18-5.03-2.87-8.02-2.65-7.09.51-14.18,1.09-21.26,1.72-6.29.56-10.86,5.22-10.78,11.38.07,5.61.28,11.25.98,16.81,1.83,14.51,6.67,28.01,14.47,40.43,3.52,5.6,7.55,10.81,12.11,15.57,6.39,6.67,13.62,12.32,21.65,16.94Z"/><path class="cls-2" d="m67.36,10.09s12.45,1.13,28.28,16.97c15.84,15.84,16.97,28.28,16.97,28.28"/><path class="cls-2" d="m71.13,28.94s5.28,1.51,13.2,9.43c7.92,7.92,9.43,13.2,9.43,13.2"/></svg>