<svg width="44" height="44" viewBox="0 0 44 44" fill="none" xmlns="http://www.w3.org/2000/svg">
<ellipse cx="21.5457" cy="21.5457" rx="21.5457" ry="21.5457" fill="#160C27"/>
<path d="M29.4402 24.1713C29.4402 24.1713 30.6823 25.8025 31.192 27.6743C31.4205 28.5133 31.5163 29.3776 31.5524 30.0761C31.5952 30.9038 30.9103 31.544 30.0815 31.5438L16.4403 31.5407C15.5012 31.5404 14.7581 30.727 14.8619 29.7936C14.9439 29.0553 15.0469 28.2674 15.1727 27.6743C15.4168 26.5241 15.9279 25.441 16.6683 24.5052C17.4087 23.5695 18.3595 22.8049 19.4504 22.2681C20.5412 21.7312 21.7442 21.4359 22.9705 21.4038C24.1967 21.3717 25.4148 21.6038 26.5346 22.0828C27.6545 22.5619 28.6475 23.2756 29.4402 24.1713Z" fill="white"/>
<ellipse cx="23.1938" cy="15.2689" rx="4.48486" ry="4.53991" fill="white"/>
<path d="M12.3598 18.4889V21.2295H10.5376V18.4889H7.81903V16.674H10.5376V13.9481H12.3598V16.674H15.1005V18.4889H12.3598Z" fill="white"/>
</svg>
