<?xml version="1.0" encoding="UTF-8"?><svg id="Layer_2" xmlns="http://www.w3.org/2000/svg" viewBox="0 0 128 128"><defs><style>.cls-1{stroke-width:.5px;}.cls-1,.cls-2,.cls-3,.cls-4,.cls-5{stroke:#fff;}.cls-1,.cls-3,.cls-4{fill:#fff;}.cls-1,.cls-4{stroke-miterlimit:10;}.cls-2{stroke-width:3px;}.cls-2,.cls-5{fill:none;isolation:isolate;opacity:.5;stroke-linecap:round;}.cls-3{opacity:0;stroke-miterlimit:0;stroke-width:0px;}.cls-4{fill-rule:evenodd;stroke-width:1.15px;}.cls-5{stroke-width:9px;}</style></defs><rect class="cls-3" x="0" y="1.74" width="128" height="128"/><path class="cls-1" d="m79.42,25.63c0,13.53-10.97,24.5-24.5,24.5s-24.5-10.97-24.5-24.5S41.38,1.12,54.92,1.12s24.5,10.97,24.5,24.5Z"/><path class="cls-1" d="m118.29,37.04c0,9.8-7.95,17.74-17.75,17.74s-17.74-7.94-17.74-17.74,7.94-17.74,17.74-17.74,17.75,7.94,17.75,17.74Z"/><path class="cls-5" d="m70.09,123.16c-4.45.32-9.48.48-15.18.48-49.01,0-49.01-12.34-49.01-27.57s21.94-27.57,49.01-27.57c17.65,0,33.12,5.25,41.75,13.12-3.16-.87-7.6-.87-14.18-.87-10.11,0-15.16,0-18.3,3.14-3.14,3.14-3.14,8.19-3.14,18.3s0,15.16,3.14,18.3c1.46,1.46,3.32,2.24,5.91,2.66Z"/><path class="cls-4" d="m82.48,123.65c-10.11,0-15.16,0-18.3-3.14-3.14-3.14-3.14-8.19-3.14-18.3s0-15.16,3.14-18.3c3.14-3.14,8.19-3.14,18.3-3.14s15.16,0,18.3,3.14c3.14,3.14,3.14,8.19,3.14,18.3s0,15.16-3.14,18.3c-3.14,3.14-8.19,3.14-18.3,3.14Zm3.57-30.97c0-1.97-1.6-3.57-3.57-3.57s-3.57,1.6-3.57,3.57v5.96h-5.96c-1.97,0-3.57,1.6-3.57,3.57s1.6,3.57,3.57,3.57h5.96v5.96c0,1.97,1.6,3.57,3.57,3.57s3.57-1.6,3.57-3.57v-5.96h5.96c1.97,0,3.57-1.6,3.57-3.57s-1.6-3.57-3.57-3.57h-5.96v-5.96Z"/><path class="cls-2" d="m87.77,64.92c19.66,0,35.59,9.08,35.59,20.28,0,9.29,0,17.11-20.28,19.52"/></svg>