<svg width="128" height="128" viewBox="0 0 128 128" fill="none" xmlns="http://www.w3.org/2000/svg">
  <path id="24" class="fill-main" d="M27.5312 87.9844V79.9195C27.5312 77.2797 27.9309 75.0395 28.7301 73.1988C29.5293 71.3582 30.716 69.8082 32.2902 68.5488C33.8887 67.2652 35.8867 66.1633 38.2844 65.243L47.9476 61.5375C50.0547 60.6899 51.6047 59.6485 52.5976 58.4133C53.6148 57.1781 54.1234 55.6524 54.1234 53.836C54.1234 52.0196 53.4574 50.4938 52.1254 49.2586C50.8176 47.9992 48.9406 47.3696 46.4945 47.3696C44.1453 47.3696 42.1715 47.9629 40.573 49.1496C38.9988 50.3121 38.0906 52.0196 37.8484 54.2719H28.3305C28.4031 51.0508 29.2387 48.3746 30.8371 46.2434C32.4355 44.1121 34.5789 42.5258 37.2672 41.4844C39.9555 40.4188 42.9828 39.886 46.3492 39.886C49.5219 39.886 52.3918 40.4914 54.959 41.7024C57.5261 42.8891 59.5605 44.5602 61.0621 46.7157C62.5879 48.8469 63.3508 51.3414 63.3508 54.1992C63.3508 56.6211 62.9027 58.7524 62.0066 60.593C61.1347 62.4336 59.8027 64.0442 58.0105 65.4246C56.2183 66.8051 53.9539 68.0281 51.2172 69.0938L41.4812 72.8719C39.5922 73.5984 38.2238 74.4098 37.3762 75.3059C36.5285 76.1777 36.1047 77.3281 36.1047 78.757V80.1375H63.0601V87.9844H27.5312ZM89.2504 40.3219H97.5332V70.1836H105.743V77.5219H97.5332V87.9844H89.0325V77.5219H65.1286V71.0555L89.2504 40.3219ZM89.4684 53.0367L75.3004 71.0555H89.4684V53.0367Z" />
  <path id="Ellipse 314" class="stroke-main" d="M8.58961 52.5046C6.1194 63.9964 7.2883 75.9721 11.934 86.7693C16.5798 97.5664 24.4718 106.649 34.5146 112.757C44.5574 118.865 56.2526 121.694 67.9767 120.853C79.7007 120.011 90.872 115.54 99.9395 108.061C109.007 100.582 115.521 90.4646 118.577 79.1146C121.633 67.7646 121.08 55.7447 116.993 44.7236C112.907 33.7025 105.491 24.2269 95.7747 17.6124C86.0583 10.9979 74.5235 7.57256 62.7717 7.81199" stroke-width="12.8307"/>
  <path id="Line 116" class="fill-stroke-main" d="M24.8326 74.8789C25.1915 74.8933 25.5295 74.7101 25.7133 74.4015C25.8971 74.0929 25.8973 73.7085 25.7136 73.3997L15.0565 55.4823L15.0546 55.4791L7.05466 42.1459C6.84846 41.8022 6.45367 41.6189 6.05806 41.6831C5.66245 41.7473 5.34589 42.046 5.25895 42.4373L3.12564 52.0372C3.11655 52.0781 3.1101 52.1195 3.10632 52.1612L2.04216 63.8936C2.01903 64.1486 2.0967 64.4025 2.25854 64.601L9.88053 73.947C10.0578 74.1644 10.3198 74.2953 10.6001 74.3066L24.8326 74.8789Z" stroke-width="1.95858" stroke-linecap="square" stroke-linejoin="round"/>
  <g id="dots">
    <circle id="Ellipse 313" class="fill-stroke-main" cx="51.6303" cy="9.83082" r="6.37281" transform="rotate(-173.422 51.6303 9.83082)" stroke-width="1.09494"/>
    <circle id="Ellipse 314_2" class="fill-stroke-main" cx="32.4812" cy="17.912" r="5.293" transform="rotate(-173.422 32.4812 17.912)" stroke-width="0.604926"/>
    <circle id="Ellipse 315" class="fill-stroke-main" cx="16.8369" cy="29.5083" r="3.28822" transform="rotate(-173.422 16.8369 29.5083)" stroke-width="0.604926"/>
  </g>
  <defs>
    <style>
      .fill-stroke-main {
        stroke: black;
        fill: black;
      }
      .fill-main {
        fill: black;
        stroke: none;
      }
      .stroke-main {
        stroke: black;
        fill: none;
      }
    </style>
  </defs>
</svg>
