<svg width="27" height="33" viewBox="0 0 27 33" fill="none" xmlns="http://www.w3.org/2000/svg">
<mask id="path-1-inside-1_1084_4728" fill="white">
<path fill-rule="evenodd" clip-rule="evenodd" d="M23.6861 3.84515H2.74695C1.98948 3.84515 1.37543 4.4592 1.37543 5.21667V29.75C1.37543 30.5074 1.98948 31.1215 2.74695 31.1215H22.8281H23.6861C24.4435 31.1215 25.0576 30.5074 25.0576 29.75V5.21667C25.0576 4.4592 24.4435 3.84515 23.6861 3.84515ZM2.74695 2.47363H23.6861C25.201 2.47363 26.4291 3.70173 26.4291 5.21667V29.75C26.4291 31.2649 25.201 32.493 23.6861 32.493H22.8281H2.74695C1.23201 32.493 0.00390625 31.2649 0.00390625 29.75V5.21667C0.00390625 3.70173 1.23201 2.47363 2.74695 2.47363Z"/>
</mask>
<path d="M2.74695 5.47872H23.6861V2.21159H2.74695V5.47872ZM3.00899 5.21667C3.00899 5.3614 2.89167 5.47872 2.74695 5.47872V2.21159C1.08728 2.21159 -0.258139 3.55701 -0.258139 5.21667H3.00899ZM3.00899 29.75V5.21667H-0.258139V29.75H3.00899ZM2.74695 29.4879C2.89167 29.4879 3.00899 29.6052 3.00899 29.75H-0.258139C-0.258139 31.4096 1.08728 32.7551 2.74695 32.7551V29.4879ZM22.8281 29.4879H2.74695V32.7551H22.8281V29.4879ZM23.6861 29.4879H22.8281V32.7551H23.6861V29.4879ZM23.424 29.75C23.424 29.6052 23.5413 29.4879 23.6861 29.4879V32.7551C25.3457 32.7551 26.6912 31.4096 26.6912 29.75H23.424ZM23.424 5.21667V29.75H26.6912V5.21667H23.424ZM23.6861 5.47872C23.5413 5.47872 23.424 5.3614 23.424 5.21667H26.6912C26.6912 3.55701 25.3457 2.21159 23.6861 2.21159V5.47872ZM23.6861 0.840066H2.74695V4.1072H23.6861V0.840066ZM28.0627 5.21667C28.0627 2.79954 26.1032 0.840066 23.6861 0.840066V4.1072C24.2988 4.1072 24.7955 4.60393 24.7955 5.21667H28.0627ZM28.0627 29.75V5.21667H24.7955V29.75H28.0627ZM23.6861 34.1266C26.1032 34.1266 28.0627 32.1671 28.0627 29.75H24.7955C24.7955 30.3627 24.2988 30.8594 23.6861 30.8594V34.1266ZM22.8281 34.1266H23.6861V30.8594H22.8281V34.1266ZM2.74695 34.1266H22.8281V30.8594H2.74695V34.1266ZM-1.62966 29.75C-1.62966 32.1671 0.329815 34.1266 2.74695 34.1266V30.8594C2.1342 30.8594 1.63747 30.3627 1.63747 29.75H-1.62966ZM-1.62966 5.21667V29.75H1.63747V5.21667H-1.62966ZM2.74695 0.840066C0.329816 0.840066 -1.62966 2.79954 -1.62966 5.21667H1.63747C1.63747 4.60393 2.1342 4.1072 2.74695 4.1072V0.840066Z" fill="#0E2B4C" mask="url(#path-1-inside-1_1084_4728)"/>
<mask id="path-3-inside-2_1084_4728" fill="white">
<path d="M5.41016 14.4961H20.895V25.4134H5.41016V14.4961Z"/>
</mask>
<path d="M5.41016 14.4961V12.8625H3.77659V14.4961H5.41016ZM20.895 14.4961H22.5286V12.8625H20.895V14.4961ZM20.895 25.4134V27.047H22.5286V25.4134H20.895ZM5.41016 25.4134H3.77659V27.047H5.41016V25.4134ZM5.41016 16.1297H20.895V12.8625H5.41016V16.1297ZM19.2614 14.4961V25.4134H22.5286V14.4961H19.2614ZM20.895 23.7798H5.41016V27.047H20.895V23.7798ZM7.04372 25.4134V14.4961H3.77659V25.4134H7.04372Z" fill="#0E2B4C" mask="url(#path-3-inside-2_1084_4728)"/>
<path d="M5.82031 0V6.58287M20.994 0V6.58287" stroke="#0E2B4C" stroke-width="1.63357"/>
<path d="M13.0953 22.4243C13.3296 22.6586 13.7095 22.6586 13.9438 22.4243L17.7622 18.6059C17.9965 18.3716 17.9965 17.9917 17.7622 17.7574C17.5279 17.523 17.148 17.523 16.9136 17.7574L13.5195 21.1515L10.1254 17.7574C9.8911 17.523 9.51121 17.523 9.27689 17.7574C9.04258 17.9917 9.04258 18.3716 9.27689 18.6059L13.0953 22.4243ZM12.9195 11L12.9195 22L14.1195 22L14.1195 11L12.9195 11Z" fill="#0A386E"/>
</svg>
