<svg width="28" height="31" viewBox="0 0 28 31" fill="none" xmlns="http://www.w3.org/2000/svg">
<mask id="path-1-inside-1_50_112070" fill="white">
<path d="M23.6394 0.859375H3.39554C1.52024 0.859375 0 2.37961 0 4.25492V27.0169C0 28.8922 1.52024 30.4124 3.39555 30.4124H23.3508H23.6394C25.5147 30.4124 27.0349 28.8922 27.0349 27.0169V4.25492C27.0349 2.37961 25.5147 0.859375 23.6394 0.859375Z"/>
</mask>
<path d="M23.6394 0.859375H3.39554C1.52024 0.859375 0 2.37961 0 4.25492V27.0169C0 28.8922 1.52024 30.4124 3.39555 30.4124H23.3508H23.6394C25.5147 30.4124 27.0349 28.8922 27.0349 27.0169V4.25492C27.0349 2.37961 25.5147 0.859375 23.6394 0.859375Z" fill="white"/>
<path d="M3.39554 2.88153H23.6394V-1.16278H3.39554V2.88153ZM25.0127 4.25492V27.0169H29.057V4.25492H25.0127ZM2.02215 27.0169V4.25492H-2.02215V27.0169H2.02215ZM23.3508 28.3903H3.39555V32.4346H23.3508V28.3903ZM23.6394 28.3903H23.3508V32.4346H23.6394V28.3903ZM-2.02215 27.0169C-2.02215 30.009 0.403433 32.4346 3.39555 32.4346V28.3903C2.63704 28.3903 2.02215 27.7754 2.02215 27.0169H-2.02215ZM25.0127 27.0169C25.0127 27.7754 24.3979 28.3903 23.6394 28.3903V32.4346C26.6315 32.4346 29.057 30.009 29.057 27.0169H25.0127ZM23.6394 2.88153C24.3979 2.88153 25.0127 3.49641 25.0127 4.25492H29.057C29.057 1.26281 26.6315 -1.16278 23.6394 -1.16278V2.88153ZM3.39554 -1.16278C0.403432 -1.16278 -2.02215 1.26281 -2.02215 4.25492H2.02215C2.02215 3.49642 2.63704 2.88153 3.39554 2.88153V-1.16278Z" fill="white" mask="url(#path-1-inside-1_50_112070)"/>
</svg>
