<svg width="27" height="27" viewBox="0 0 27 27" fill="none" xmlns="http://www.w3.org/2000/svg">
<g opacity="0.4">
<path d="M11.025 21.375C9.24375 21.375 7.71094 20.775 6.42656 19.575C5.14219 18.375 4.5 16.8937 4.5 15.1312C4.5 13.3687 5.14219 11.8875 6.42656 10.6875C7.71094 9.4875 9.24375 8.8875 11.025 8.8875H19.2937L16.0875 5.68125L17.2687 4.5L22.5 9.73125L17.2687 14.9625L16.0875 13.7812L19.2937 10.575H10.9969C9.68437 10.575 8.55469 11.0109 7.60781 11.8828C6.66094 12.7547 6.1875 13.8375 6.1875 15.1312C6.1875 16.425 6.66094 17.5078 7.60781 18.3797C8.55469 19.2516 9.68437 19.6875 10.9969 19.6875H19.7156V21.375H11.025Z" fill="#0A386E"/>
</g>
</svg>
