<svg width="22" height="16" viewBox="0 0 22 16" fill="none" xmlns="http://www.w3.org/2000/svg">
<path d="M16.1599 0.181557C16.5789 0.184775 16.9298 0.43902 17.08 0.85418C17.4942 2.00311 17.9084 3.15365 18.3226 4.30419C19.4925 7.55628 20.6623 10.8084 21.8338 14.0588C21.9634 14.4193 21.9539 14.7604 21.7263 15.0726C21.4955 15.388 21.1746 15.5232 20.7936 15.4652C20.4062 15.4073 20.1438 15.1724 20.0079 14.7991C19.7407 14.0637 19.4782 13.3283 19.2127 12.5929C19.0324 12.0941 18.8522 11.5952 18.6767 11.0948C18.6483 11.0159 18.6119 10.9838 18.5265 10.9838C16.9456 10.987 15.3647 10.987 13.7838 10.9838C13.6921 10.9838 13.6558 11.0159 13.6242 11.1012C13.1847 12.3322 12.742 13.5632 12.2978 14.7926C12.1492 15.203 11.8567 15.4411 11.4251 15.4733C11.0125 15.5023 10.6489 15.277 10.4782 14.9069C10.3485 14.6237 10.3675 14.3421 10.4718 14.054C11.1358 12.2196 11.7951 10.3852 12.4559 8.54913C13.3775 5.98736 14.2992 3.42399 15.2225 0.862226C15.3774 0.432584 15.7299 0.179948 16.1631 0.181557H16.1599ZM17.9163 8.98842C17.3282 7.35192 16.7464 5.73633 16.1504 4.08213C15.5544 5.73955 14.9727 7.35836 14.3846 8.98842H17.9147H17.9163Z" fill="#160C27" fill-opacity="0.5"/>
<path d="M8.27087 15.5022C7.97682 15.4749 7.74917 15.3188 7.64167 15.0308C7.38398 14.3453 7.13103 13.6581 6.87809 12.9694C6.7611 12.6524 6.76268 12.6524 6.43386 12.6524C5.37939 12.6524 4.32493 12.654 3.27047 12.6492C3.16139 12.6492 3.10922 12.6782 3.0697 12.7876C2.80094 13.531 2.52587 14.2728 2.25079 15.0147C2.10693 15.4025 1.72119 15.5779 1.36865 15.4218C1.0414 15.277 0.892794 14.9213 1.02085 14.5657C1.23427 13.9735 1.45401 13.3846 1.67218 12.794C2.548 10.4205 3.42382 8.04705 4.29964 5.67356C4.44508 5.27932 4.76126 5.09105 5.11538 5.19242C5.34145 5.25679 5.48532 5.41127 5.56594 5.63333C5.96433 6.71789 6.36588 7.80085 6.76426 8.88381C7.45986 10.7681 8.15546 12.6524 8.84948 14.5384C8.9712 14.8698 8.88584 15.1917 8.61708 15.3606C8.51116 15.4266 8.38469 15.4572 8.26612 15.5038L8.27087 15.5022ZM4.94307 7.72683C4.49567 8.94013 4.05934 10.1196 3.61985 11.3104H6.2647C5.82363 10.1164 5.38888 8.93852 4.94148 7.72683H4.94307Z" fill="#160C27" fill-opacity="0.5"/>
<path d="M4.94871 3.50612C4.35113 3.50612 3.75197 3.50773 3.15439 3.50451C3.05795 3.50451 2.95836 3.49324 2.86667 3.46428C2.68644 3.40635 2.61688 3.26153 2.68012 3.0813C2.70858 3.00245 2.75284 2.92682 2.80185 2.85763C3.36465 2.05949 3.92903 1.26136 4.49341 0.464828C4.76849 0.077023 5.12577 0.0754138 5.40243 0.464828C5.97314 1.26779 6.54226 2.07237 7.10981 2.87855C7.2015 3.00889 7.28845 3.1521 7.20782 3.31624C7.12562 3.48681 6.95646 3.5029 6.79363 3.50451C6.17866 3.50773 5.5621 3.50451 4.94713 3.50612H4.94871Z" fill="#160C27" fill-opacity="0.5"/>
</svg>
