<svg width="14" height="11" viewBox="0 0 14 11" fill="none" xmlns="http://www.w3.org/2000/svg">
<path d="M2.19005 3.82704C3.00317 3.82704 3.66233 3.15154 3.66233 2.31827C3.66233 1.48501 3.00317 0.809509 2.19005 0.809509C1.37693 0.809509 0.717773 1.48501 0.717773 2.31827C0.717773 3.15154 1.37693 3.82704 2.19005 3.82704Z" fill="#160C27" fill-opacity="0.5"/>
<path d="M2.19054 10.868C3.00365 10.868 3.66282 10.1925 3.66282 9.35923C3.66282 8.52596 3.00365 7.85046 2.19054 7.85046C1.37742 7.85046 0.718262 8.52596 0.718262 9.35923C0.718262 10.1925 1.37742 10.868 2.19054 10.868Z" fill="#160C27" fill-opacity="0.5"/>
<path d="M13.4771 8.85599H6.60645V9.86183H13.4771V8.85599Z" fill="#160C27" fill-opacity="0.5"/>
<path d="M13.4771 1.81537H6.60645V2.82121H13.4771V1.81537Z" fill="#160C27" fill-opacity="0.5"/>
</svg>
