<svg width="28" height="22" viewBox="0 0 28 22" fill="none" xmlns="http://www.w3.org/2000/svg">
<path d="M15.6359 15.7033C18.6897 12.639 21.7483 9.56974 24.8435 6.46337C23.4985 5.11687 22.1267 3.74314 20.9208 2.53525C17.845 5.56735 14.7449 8.62669 11.679 11.6514C13.0044 13.0078 14.369 14.4063 15.6359 15.7033Z" stroke="#160C27" stroke-opacity="0.5" stroke-width="1.14953" stroke-linecap="round" stroke-linejoin="round"/>
<path d="M12.3789 17.253C13.3797 16.9189 14.3634 16.5352 15.3814 16.159C13.9875 14.7555 12.6376 13.3991 11.2584 12.0106C11.1071 12.3967 10.9386 12.7927 10.7971 13.1962C10.5456 13.9165 10.011 14.706 10.1477 15.3446C10.2844 15.9832 11.0998 16.4708 11.6197 17.0253C11.6539 17.0624 11.6832 17.1218 11.7247 17.1317C11.9444 17.1837 12.1958 17.3149 12.3813 17.253H12.3789Z" stroke="#160C27" stroke-opacity="0.5" stroke-width="0.766357" stroke-miterlimit="10"/>
<path d="M25.5223 6.15648C26.7551 4.96839 26.7575 4.24811 25.5321 3.03775C25.1171 2.62934 24.707 2.21351 24.3018 1.7952C23.2253 0.683842 22.3758 0.735821 21.3799 1.96104C22.7493 3.34467 24.1163 4.7283 25.5248 6.15401L25.5223 6.15648Z" stroke="#160C27" stroke-opacity="0.5" stroke-width="1.14953" stroke-linecap="round" stroke-linejoin="round"/>
<path d="M1.2674 19.9828C1.27228 20.4828 1.59206 20.6338 2.02168 20.6338C3.67916 20.6362 5.33907 20.5546 6.98922 20.6659C8.12431 20.7427 8.95915 20.4506 9.545 19.4085C9.48642 19.3665 9.44736 19.312 9.41074 19.312C6.93796 19.3095 4.46517 19.312 1.99483 19.312C1.54079 19.312 1.26252 19.4977 1.2674 19.9828Z" stroke="#160C27" stroke-opacity="0.5" stroke-width="1.53271" stroke-linecap="round" stroke-linejoin="round"/>
<path d="M10.8716 18.3666C11.2597 18.03 11.599 17.7354 11.9188 17.4582C11.267 16.7849 10.6299 16.1241 9.95862 15.4285C9.64128 15.7751 9.33615 16.1092 9.12134 16.3443C9.73404 17.0547 10.3394 17.7527 10.8691 18.3666H10.8716Z" stroke="#160C27" stroke-opacity="0.5" stroke-width="0.689721" stroke-linecap="round" stroke-linejoin="round"/>
<path d="M10.4197 18.0569C10.0389 17.6337 9.70449 17.2624 9.47747 17.0099C8.81595 17.6089 8.15931 18.2054 7.35864 18.9331C8.56208 18.7723 9.77284 19.3812 10.4197 18.0569Z" stroke="#160C27" stroke-opacity="0.5" stroke-width="0.613085" stroke-linecap="round" stroke-linejoin="round"/>
</svg>
