<svg width="21" height="21" viewBox="0 0 21 21" fill="none" xmlns="http://www.w3.org/2000/svg">
<path d="M19.9994 18.0854V15.2252C20.011 14.7576 19.8501 14.302 19.5471 13.9452C19.2441 13.5883 18.8203 13.355 18.3563 13.2897C14.8485 12.5063 18.3563 13.2897 15.6718 12.6223C15.3299 12.494 14.9583 12.4663 14.601 12.5423C14.2438 12.6184 13.9159 12.795 13.6561 13.0513L12.6276 13.9452C10.2359 12.5879 8.39933 10.5119 7.03938 8.125L7.92423 7.33082C8.18108 7.07159 8.35809 6.74431 8.43428 6.38777C8.51047 6.03122 8.48266 5.66035 8.35413 5.31909L7.6854 2.63998C7.62052 2.18181 7.39091 1.76282 7.03938 1.4611C6.68786 1.15939 6.2384 0.995538 5.77477 1.00009H2.90883C2.64358 1.00034 2.38128 1.05571 2.13865 1.16267C1.89601 1.26963 1.67835 1.42585 1.49952 1.62136C1.32069 1.81688 1.18461 2.04742 1.09994 2.2983C1.01528 2.54917 0.983881 2.8149 1.00775 3.07855C1.32133 6.02557 1.7605 8.80438 3.375 11.2917C4.84173 13.5953 9.59641 18.0854 13.9493 19.3672C15.2291 19.6707 16.5567 19.8448 17.9168 19.9923C18.1818 20.0162 18.4489 19.9846 18.7009 19.8995C18.9529 19.8144 19.1844 19.6778 19.3804 19.4983C19.5765 19.3188 19.7328 19.1004 19.8394 18.8571C19.946 18.6138 20.0005 18.3509 19.9994 18.0854Z" stroke="#160C27" stroke-width="2" stroke-linecap="round" stroke-linejoin="round"/>
</svg>
