<svg width="30" height="29" viewBox="0 0 30 29" fill="none" xmlns="http://www.w3.org/2000/svg">
<path d="M2.72754 8.1803L26.3911 25.4198" stroke="black" stroke-width="2" stroke-linecap="round"/>
<path d="M8.07854 17.7073C8.9731 18.3135 8.9493 17.247 8.9493 17.247L8.9507 17.2456L8.9689 13.9627L9.0235 4.11384C10.4486 1.69181 11.8752 4.08999 11.8752 4.08999L12.7496 12.7622L12.8411 2.05526C14.1697 -0.319069 15.4996 2.05526 15.4996 2.05526L16.0651 12.7622L16.4908 3.77566C17.6989 1.78863 19.1492 3.77566 19.1492 3.77566L19.3806 12.7622L20.1404 7.04667C21.6159 4.93896 22.9207 7.04667 22.9207 7.04667L22.8353 13.8792L22.7499 20.7117C21.2757 27.568 15.4982 27.0109 15.4982 27.0109C11.2438 27.2298 7.93295 22.9892 7.93295 22.9892L3.92073 15.8409C4.01733 13.2968 6.09623 14.4363 6.09623 14.4363L8.07854 17.7073Z" stroke="#160C27" stroke-width="2" stroke-miterlimit="10" stroke-linejoin="round"/>
</svg>
