<svg width="21" height="29" viewBox="0 0 21 29" fill="none" xmlns="http://www.w3.org/2000/svg">
<path d="M5.15789 17.7073C6.05244 18.3135 6.02864 17.247 6.02864 17.247L6.03004 17.2456L6.04824 13.9627L6.10284 4.11384C7.52798 1.69181 8.95451 4.08999 8.95451 4.08999L9.82896 12.7622L9.92047 2.05526C11.249 -0.319069 12.5789 2.05526 12.5789 2.05526L13.1445 12.7622L13.5701 3.77566C14.7782 1.78863 16.2286 3.77566 16.2286 3.77566L16.46 12.7622L17.2197 7.04667C18.6953 4.93896 20 7.04667 20 7.04667L19.9146 13.8792L19.8292 20.7117C18.3551 27.568 12.5775 27.0109 12.5775 27.0109C8.32314 27.2298 5.01229 22.9892 5.01229 22.9892L1.00008 15.8409C1.09667 13.2968 3.17558 14.4363 3.17558 14.4363L5.15789 17.7073Z" stroke="#160C27" stroke-width="2" stroke-miterlimit="10" stroke-linejoin="round"/>
</svg>
